<svg width="60" height="60" viewBox="0 0 60 60" fill="none" xmlns="http://www.w3.org/2000/svg">
<path d="M16.2628 21.8659C16.2848 21.6471 16.2554 21.4262 16.1767 21.2209C16.0981 21.0155 15.9725 20.8315 15.8099 20.6834L12.4529 16.6092V16H22.8727L30.9275 33.8007L38.0083 16H47.9429V16.6092L45.0728 19.3786C44.9512 19.4725 44.8574 19.5977 44.8014 19.7408C44.7453 19.8838 44.7292 20.0394 44.7547 20.1909V40.5598C44.7292 40.7113 44.7453 40.8669 44.8014 41.0099C44.8574 41.153 44.9512 41.2782 45.0728 41.3721L47.8764 44.1433V44.7543H33.7796V44.145L36.6838 41.3056C36.9695 41.018 36.9695 40.9336 36.9695 40.4951V24.0296L28.8967 44.686H27.8077L18.4086 24.0296V37.8748C18.3313 38.4553 18.5236 39.043 18.9298 39.4635L22.7056 44.0786V44.686H12V44.0786L15.774 39.4635C15.9737 39.2551 16.1219 39.003 16.2068 38.7271C16.2916 38.4513 16.3108 38.1594 16.2628 37.8748V21.8659Z" fill="#414141"/>
</svg>
