<svg width="58" height="48" viewBox="0 0 58 48" fill="none" xmlns="http://www.w3.org/2000/svg">
<path d="M24.6297 25.0678C26.9091 23.9741 28.099 22.3191 28.099 19.7431C28.099 14.6631 24.3287 13.4254 19.9777 13.4254H8V38.9265H20.3146C24.9308 38.9265 29.2674 36.703 29.2674 31.5222C29.2674 28.3202 27.7549 25.9529 24.6297 25.0678V25.0678ZM13.5839 17.7788H18.8236C20.8378 17.7788 22.6513 18.3472 22.6513 20.6929C22.6513 22.8588 21.2393 23.7295 19.2466 23.7295H13.5839V17.7788V17.7788ZM19.5548 34.5947H13.5839V27.5719H19.6695C22.1281 27.5719 23.6835 28.6009 23.6835 31.2128C23.6835 33.7888 21.827 34.5947 19.5548 34.5947V34.5947ZM45.252 17.2751H34.9516V14.7638H45.252V17.2751V17.2751ZM49.2876 29.9608C49.2876 24.4994 46.105 19.9446 40.3347 19.9446C34.7294 19.9446 30.9232 24.1756 30.9232 29.7162C30.9232 35.4654 34.5287 39.4086 40.3347 39.4086C44.7287 39.4086 47.5744 37.4226 48.9435 33.1988H44.485C44.0048 34.7746 42.0264 35.6093 40.4924 35.6093C37.5321 35.6093 35.9766 33.868 35.9766 30.9106H49.2445C49.2661 30.6084 49.2876 30.2846 49.2876 29.9608ZM35.9838 27.7158C36.1486 25.2909 37.7543 23.7726 40.1771 23.7726C42.7145 23.7726 43.9904 25.2693 44.2055 27.7158H35.9838Z" fill="#414141"/>
</svg>
