<svg width="768" height="788" viewBox="0 0 768 788" fill="none" xmlns="http://www.w3.org/2000/svg">
<path d="M374 31C374 13.8792 387.879 0 405 0H540C557.121 0 571 13.8792 571 31V98.5V166C571 183.121 557.121 197 540 197H405C387.879 197 374 183.121 374 166V31Z" fill="#6700FF"/>
<path d="M374 431C374 413.879 387.879 400 405 400H540C557.121 400 571 413.879 571 431V498.5V566C571 583.121 557.121 597 540 597H405C387.879 597 374 583.121 374 566V431Z" fill="#6700FF"/>
<path d="M571 234C571 216.879 584.879 203 602 203H737C754.121 203 768 216.879 768 234V301.5V369C768 386.121 754.121 400 737 400H602C584.879 400 571 386.121 571 369V234Z" fill="#6700FF"/>
<path d="M177 228C177 210.879 190.879 197 208 197H343C360.121 197 374 210.879 374 228V295.5V363C374 380.121 360.121 394 343 394H208C190.879 394 177 380.121 177 363V228Z" fill="white"/>
<path d="M177 622C177 604.879 190.879 591 208 591H343C360.121 591 374 604.879 374 622V689.5V757C374 774.121 360.121 788 343 788H208C190.879 788 177 774.121 177 757V622Z" fill="white"/>
<path d="M0 425C0 407.879 13.8792 394 31 394H166C183.121 394 197 407.879 197 425V492.5V560C197 577.121 183.121 591 166 591H31C13.8792 591 0 577.121 0 560V425Z" fill="#A060FF"/>
<circle cx="470" cy="298" r="101" fill="#F68CFF"/>
</svg>
