<svg width="60" height="60" viewBox="0 0 60 60" fill="none" xmlns="http://www.w3.org/2000/svg">
<path d="M19.835 45.1041V30.1149L15.177 25.8622L11 23.5022V42.4589C11 43.9225 12.1882 45.1041 13.6506 45.1041H19.835V45.1041Z" fill="#727272"/>
<path d="M41.0391 45.1041H47.2235C48.6902 45.1041 49.8741 43.9181 49.8741 42.4589V23.5023L45.143 26.2054L41.0391 30.1149V45.1041V45.1041Z" fill="#7A7A7A"/>
<path d="M19.835 30.1149L19.2012 24.2582L19.835 18.6528L30.4369 26.5882L41.0388 18.6528L41.748 23.9556L41.0388 30.1149L30.4369 38.0504L19.835 30.1149Z" fill="#676767"/>
<path d="M41.0391 18.6528V30.1149L49.8741 23.5022V19.9753C49.8741 16.7042 46.1324 14.8395 43.513 16.8012L41.0391 18.6528Z" fill="#969696"/>
<path d="M11 23.502L15.0634 26.5435L19.835 30.1148V18.6526L17.361 16.8011C14.737 14.8392 11 16.7041 11 19.975V23.5019V23.502Z" fill="#333333"/>
</svg>
