<svg width="1920" height="967" viewBox="0 0 1920 967" fill="none" xmlns="http://www.w3.org/2000/svg">
<g clip-path="url(#clip0)">
<rect width="1920" height="967" fill="white"/>
<rect width="1920" height="967" fill="url(#paint0_linear)"/>
<g filter="url(#filter0_f)">
<circle cx="123.793" cy="890.793" r="217.836" transform="rotate(105 123.793 890.793)" fill="url(#paint1_linear)"/>
</g>
<g filter="url(#filter1_f)">
<circle cx="1852.28" cy="292.281" r="156.18" transform="rotate(105 1852.28 292.281)" fill="url(#paint2_linear)"/>
</g>
<g filter="url(#filter2_f)">
<circle cx="1268.02" cy="761.021" r="89.0156" transform="rotate(90 1268.02 761.021)" fill="url(#paint3_linear)"/>
</g>
<path d="M131.208 124.672C131.208 142.584 129.255 158.114 125.349 171.263C121.538 184.316 116.297 195.13 109.628 203.705C102.958 212.28 95.0504 218.663 85.9037 222.855C76.8524 227.048 67.134 229.144 56.7488 229.144C46.2682 229.144 36.5022 227.048 27.4508 222.855C18.4947 218.663 10.6819 212.28 4.0125 203.705C-2.65695 195.13 -7.89722 184.316 -11.7083 171.263C-15.5194 158.114 -17.425 142.584 -17.425 124.672C-17.425 106.759 -15.5194 91.2292 -11.7083 78.0808C-7.89722 64.9325 -2.65695 54.0708 4.0125 45.4958C10.6819 36.8256 18.4947 30.3943 27.4508 26.2021C36.5022 22.0099 46.2682 19.9137 56.7488 19.9137C67.134 19.9137 76.8524 22.0099 85.9037 26.2021C95.0504 30.3943 102.958 36.8256 109.628 45.4958C116.297 54.0708 121.538 64.9325 125.349 78.0808C129.255 91.2292 131.208 106.759 131.208 124.672ZM104.769 124.672C104.769 109.046 103.435 95.9454 100.767 85.3696C98.1946 74.6985 94.6693 66.1235 90.1912 59.6446C85.8085 53.1657 80.7111 48.5447 74.8992 45.7817C69.0872 42.9233 63.0371 41.4942 56.7488 41.4942C50.4604 41.4942 44.4103 42.9233 38.5983 45.7817C32.7864 48.5447 27.689 53.1657 23.3063 59.6446C18.9235 66.1235 15.3982 74.6985 12.7304 85.3696C10.1579 95.9454 8.87167 109.046 8.87167 124.672C8.87167 140.297 10.1579 153.398 12.7304 163.974C15.3982 174.55 18.9235 183.077 23.3063 189.556C27.689 196.035 32.7864 200.703 38.5983 203.562C44.4103 206.325 50.4604 207.706 56.7488 207.706C63.0371 207.706 69.0872 206.325 74.8992 203.562C80.7111 200.703 85.8085 196.035 90.1912 189.556C94.6693 183.077 98.1946 174.55 100.767 163.974C103.435 153.398 104.769 140.297 104.769 124.672ZM280.864 202.847C283.627 202.847 285.819 203.657 287.439 205.277C289.058 206.896 289.868 208.993 289.868 211.565V227H153.24V218.282C153.24 216.472 153.621 214.614 154.383 212.708C155.145 210.803 156.336 209.04 157.956 207.42L223.555 141.536C228.986 136.01 233.94 130.722 238.418 125.672C242.896 120.527 246.707 115.382 249.851 110.237C252.996 105.092 255.425 99.8994 257.14 94.6592C258.855 89.3236 259.713 83.6546 259.713 77.6521C259.713 71.6496 258.76 66.4093 256.854 61.9312C254.949 57.3579 252.329 53.5944 248.994 50.6408C245.755 47.6872 241.896 45.4958 237.418 44.0667C232.94 42.5422 228.128 41.78 222.983 41.78C217.743 41.78 212.931 42.5422 208.549 44.0667C204.166 45.5911 200.259 47.7349 196.829 50.4979C193.495 53.1657 190.684 56.3575 188.397 60.0733C186.111 63.7892 184.491 67.8861 183.538 72.3642C182.395 75.6989 180.823 77.9379 178.822 79.0812C176.916 80.1293 174.201 80.4151 170.676 79.9388L157.384 77.6521C158.718 68.3149 161.291 60.0733 165.102 52.9275C169.008 45.6864 173.867 39.6363 179.679 34.7771C185.587 29.9179 192.304 26.2497 199.831 23.7725C207.358 21.2 215.504 19.9137 224.269 19.9137C232.94 19.9137 241.038 21.2 248.565 23.7725C256.092 26.345 262.619 30.1085 268.145 35.0629C273.671 39.9221 278.006 45.8769 281.15 52.9275C284.294 59.9781 285.866 67.9814 285.866 76.9375C285.866 84.5597 284.723 91.6579 282.436 98.2321C280.15 104.711 277.053 110.904 273.147 116.811C269.241 122.718 264.715 128.483 259.57 134.104C254.52 139.726 249.137 145.395 243.42 151.111L189.398 206.277C193.209 205.229 197.068 204.419 200.974 203.848C204.88 203.181 208.644 202.847 212.264 202.847H280.864Z" fill="#FFF5E8"/>
</g>
<defs>
<filter id="filter0_f" x="-125.097" y="641.903" width="497.779" height="497.779" filterUnits="userSpaceOnUse" color-interpolation-filters="sRGB">
<feFlood flood-opacity="0" result="BackgroundImageFix"/>
<feBlend mode="normal" in="SourceGraphic" in2="BackgroundImageFix" result="shape"/>
<feGaussianBlur stdDeviation="15.5" result="effect1_foregroundBlur"/>
</filter>
<filter id="filter1_f" x="1630" y="70.0001" width="444.561" height="444.561" filterUnits="userSpaceOnUse" color-interpolation-filters="sRGB">
<feFlood flood-opacity="0" result="BackgroundImageFix"/>
<feBlend mode="normal" in="SourceGraphic" in2="BackgroundImageFix" result="shape"/>
<feGaussianBlur stdDeviation="15.5" result="effect1_foregroundBlur"/>
</filter>
<filter id="filter2_f" x="1148.01" y="641.006" width="240.031" height="240.031" filterUnits="userSpaceOnUse" color-interpolation-filters="sRGB">
<feFlood flood-opacity="0" result="BackgroundImageFix"/>
<feBlend mode="normal" in="SourceGraphic" in2="BackgroundImageFix" result="shape"/>
<feGaussianBlur stdDeviation="15.5" result="effect1_foregroundBlur"/>
</filter>
<linearGradient id="paint0_linear" x1="960" y1="0" x2="960" y2="967" gradientUnits="userSpaceOnUse">
<stop stop-color="white" stop-opacity="0"/>
<stop offset="1" stop-color="#FFEEDA"/>
</linearGradient>
<linearGradient id="paint1_linear" x1="-10.3208" y1="788.025" x2="428.525" y2="901.109" gradientUnits="userSpaceOnUse">
<stop stop-color="#FFF0DE"/>
<stop offset="1" stop-color="#F2921D"/>
</linearGradient>
<linearGradient id="paint2_linear" x1="1756.13" y1="218.6" x2="2070.76" y2="299.677" gradientUnits="userSpaceOnUse">
<stop stop-color="#FFF0DE"/>
<stop offset="1" stop-color="#F2921D"/>
</linearGradient>
<linearGradient id="paint3_linear" x1="1213.22" y1="719.027" x2="1392.55" y2="765.237" gradientUnits="userSpaceOnUse">
<stop stop-color="#FFF0DE"/>
<stop offset="1" stop-color="#F2921D"/>
</linearGradient>
<clipPath id="clip0">
<rect width="1920" height="967" fill="white"/>
</clipPath>
</defs>
</svg>
