<svg width="1920" height="967" viewBox="0 0 1920 967" fill="none" xmlns="http://www.w3.org/2000/svg">
<g clip-path="url(#clip0)">
<rect width="1920" height="967" fill="white"/>
<rect width="1920" height="967" fill="url(#paint0_linear)"/>
<g filter="url(#filter0_f)">
<circle cx="-53.5" cy="1008.5" r="274.5" fill="url(#paint1_linear)"/>
</g>
<g filter="url(#filter1_f)">
<circle cx="1085.5" cy="279.5" r="213.5" fill="url(#paint2_linear)"/>
</g>
<g filter="url(#filter2_f)">
<circle cx="1743" cy="914" r="142" fill="url(#paint3_linear)"/>
</g>
<path d="M131.208 146.672C131.208 164.584 129.255 180.114 125.349 193.263C121.538 206.316 116.297 217.13 109.628 225.705C102.958 234.28 95.0504 240.663 85.9037 244.855C76.8524 249.048 67.134 251.144 56.7488 251.144C46.2682 251.144 36.5022 249.048 27.4508 244.855C18.4947 240.663 10.6819 234.28 4.0125 225.705C-2.65695 217.13 -7.89722 206.316 -11.7083 193.263C-15.5194 180.114 -17.425 164.584 -17.425 146.672C-17.425 128.759 -15.5194 113.229 -11.7083 100.081C-7.89722 86.9325 -2.65695 76.0708 4.0125 67.4958C10.6819 58.8256 18.4947 52.3943 27.4508 48.2021C36.5022 44.0099 46.2682 41.9137 56.7488 41.9137C67.134 41.9137 76.8524 44.0099 85.9037 48.2021C95.0504 52.3943 102.958 58.8256 109.628 67.4958C116.297 76.0708 121.538 86.9325 125.349 100.081C129.255 113.229 131.208 128.759 131.208 146.672ZM104.769 146.672C104.769 131.046 103.435 117.945 100.767 107.37C98.1946 96.6985 94.6693 88.1235 90.1912 81.6446C85.8085 75.1657 80.7111 70.5447 74.8992 67.7817C69.0872 64.9233 63.0371 63.4942 56.7488 63.4942C50.4604 63.4942 44.4103 64.9233 38.5983 67.7817C32.7864 70.5447 27.689 75.1657 23.3063 81.6446C18.9235 88.1235 15.3982 96.6985 12.7304 107.37C10.1579 117.945 8.87167 131.046 8.87167 146.672C8.87167 162.297 10.1579 175.398 12.7304 185.974C15.3982 196.55 18.9235 205.077 23.3063 211.556C27.689 218.035 32.7864 222.703 38.5983 225.562C44.4103 228.325 50.4604 229.706 56.7488 229.706C63.0371 229.706 69.0872 228.325 74.8992 225.562C80.7111 222.703 85.8085 218.035 90.1912 211.556C94.6693 205.077 98.1946 196.55 100.767 185.974C103.435 175.398 104.769 162.297 104.769 146.672ZM285.295 229.563V249H175.535V229.563H219.41V89.9338C219.41 85.7415 219.553 81.5017 219.839 77.2142L183.395 108.513C182.157 109.561 180.918 110.228 179.679 110.514C178.441 110.704 177.297 110.704 176.249 110.514C175.201 110.323 174.201 109.942 173.248 109.37C172.391 108.799 171.724 108.179 171.247 107.513L163.244 96.5079L224.269 43.7717H244.992V229.563H285.295Z" fill="#FFEEF1"/>
</g>
<defs>
<filter id="filter0_f" x="-359" y="703" width="611" height="611" filterUnits="userSpaceOnUse" color-interpolation-filters="sRGB">
<feFlood flood-opacity="0" result="BackgroundImageFix"/>
<feBlend mode="normal" in="SourceGraphic" in2="BackgroundImageFix" result="shape"/>
<feGaussianBlur stdDeviation="15.5" result="effect1_foregroundBlur"/>
</filter>
<filter id="filter1_f" x="847.889" y="41.8889" width="475.222" height="475.222" filterUnits="userSpaceOnUse" color-interpolation-filters="sRGB">
<feFlood flood-opacity="0" result="BackgroundImageFix"/>
<feBlend mode="normal" in="SourceGraphic" in2="BackgroundImageFix" result="shape"/>
<feGaussianBlur stdDeviation="12.0556" result="effect1_foregroundBlur"/>
</filter>
<filter id="filter2_f" x="1584.96" y="755.964" width="316.073" height="316.073" filterUnits="userSpaceOnUse" color-interpolation-filters="sRGB">
<feFlood flood-opacity="0" result="BackgroundImageFix"/>
<feBlend mode="normal" in="SourceGraphic" in2="BackgroundImageFix" result="shape"/>
<feGaussianBlur stdDeviation="8.01822" result="effect1_foregroundBlur"/>
</filter>
<linearGradient id="paint0_linear" x1="960" y1="0" x2="960" y2="967" gradientUnits="userSpaceOnUse">
<stop stop-color="white" stop-opacity="0"/>
<stop offset="1" stop-color="#FFE9EE"/>
</linearGradient>
<linearGradient id="paint1_linear" x1="-222.5" y1="879" x2="330.5" y2="1021.5" gradientUnits="userSpaceOnUse">
<stop stop-color="#E8D9FF"/>
<stop offset="1" stop-color="#FFE9EE"/>
</linearGradient>
<linearGradient id="paint2_linear" x1="954.056" y1="178.778" x2="1384.17" y2="289.611" gradientUnits="userSpaceOnUse">
<stop stop-color="#E8D9FF"/>
<stop offset="1" stop-color="#FFE9EE"/>
</linearGradient>
<linearGradient id="paint3_linear" x1="1655.58" y1="847.009" x2="1941.64" y2="920.725" gradientUnits="userSpaceOnUse">
<stop stop-color="#E8D9FF"/>
<stop offset="1" stop-color="#FFE9EE"/>
</linearGradient>
<clipPath id="clip0">
<rect width="1920" height="967" fill="white"/>
</clipPath>
</defs>
</svg>
