<svg width="155" height="78" viewBox="0 0 155 78" fill="none" xmlns="http://www.w3.org/2000/svg">
<path opacity="0.45" d="M9.54695 18.7309C11.7646 15.5192 14.6112 12.7886 17.9154 10.7035C21.2195 8.61849 24.9127 7.2222 28.7724 6.59881C32.6321 5.97542 36.5784 6.13785 40.3735 7.07629C44.1685 8.01474 47.7338 9.70977 50.8544 12.0593C63.3303 21.3746 65.7218 39.8634 56.5238 52.4895L42.5344 71.8957C42.2006 72.3591 41.7784 72.7522 41.2919 73.0526C40.8055 73.353 40.2644 73.5547 39.6997 73.6461C39.1349 73.7375 38.5577 73.7169 38.0009 73.5854C37.4442 73.4539 36.919 73.2141 36.4554 72.8797L16.9974 58.8943C4.34589 49.8042 0.716848 31.5405 9.54695 18.7309Z" fill="#323232"/>
<path opacity="0.45" d="M32.8103 6.20494C36.719 6.12409 40.6036 6.83299 44.2303 8.28894C47.857 9.7449 51.1507 11.9178 53.9132 14.6768C56.6756 17.4358 58.8497 20.7238 60.3044 24.3429C61.7591 27.962 62.4644 31.8373 62.3778 35.7354C62.0433 51.297 48.3801 63.9982 32.7685 63.9815H8.78677C8.21254 63.9815 7.64398 63.8683 7.11378 63.6484C6.58359 63.4285 6.10221 63.1062 5.69734 62.7001C5.29247 62.2939 4.9721 61.812 4.75464 61.282C4.53719 60.7519 4.42694 60.1842 4.43025 59.6116V35.6853C4.47206 20.1404 17.2239 6.53019 32.8103 6.20494Z" fill="#323232"/>
<path opacity="0.45" d="M20.0413 9.47381C23.5093 7.67124 27.3072 6.58769 31.2064 6.2885C35.1055 5.9893 39.025 6.48065 42.7285 7.73293C46.4321 8.98521 49.8431 10.9725 52.7558 13.5749C55.6686 16.1774 58.0227 19.3412 59.6764 22.8755C66.2823 36.9777 59.6765 54.3991 45.6704 61.2792L24.1554 71.8621C23.6415 72.1185 23.0817 72.2708 22.5084 72.3102C21.9351 72.3496 21.3597 72.2752 20.8154 72.0914C20.2711 71.9076 19.7688 71.618 19.3374 71.2394C18.906 70.8608 18.5541 70.4007 18.3021 69.8856L7.716 48.4279C0.825842 34.4758 6.21087 16.6792 20.0413 9.47381Z" fill="#323232"/>
<path opacity="0.45" d="M55.6879 53.2235C52.8845 56.5657 49.3852 59.2593 45.433 61.117C41.4809 62.9748 37.1706 63.9523 32.8016 63.9816H24.0635L16.9977 58.9028C13.4043 56.2726 10.4413 52.8793 8.32284 48.9681C6.20436 45.0568 4.98323 40.7251 4.74763 36.2859C4.61258 34.0546 4.74168 31.8153 5.13228 29.6142C5.80694 25.7249 7.3158 22.0268 9.55569 18.7728C11.7685 15.5651 14.6137 12.841 17.9175 10.7668C18.252 10.55 18.5948 10.3331 18.9377 10.1413C19.2805 9.94952 19.6819 9.71601 20.0665 9.51586C20.9961 9.02639 21.9538 8.59198 22.9346 8.21489L23.913 7.80625C24.1889 7.70617 24.4648 7.61444 24.7491 7.53104L25.2425 7.38093C25.7442 7.23082 26.2543 7.09739 26.7643 6.98063L27.4417 6.83052C28.119 6.68041 28.8046 6.55531 29.4903 6.46358L30.084 6.39686H30.1843L30.6024 6.33849H30.8533L31.9403 6.26343H32.1745H32.3082C32.4726 6.25511 32.6373 6.25511 32.8016 6.26343H33.4036C33.6097 6.25073 33.8164 6.25073 34.0224 6.26343C34.4322 6.26343 34.8586 6.26343 35.2349 6.31347C35.6112 6.3635 36.0042 6.3635 36.3805 6.41354H36.7484L37.5846 6.52196H37.7769C38.0779 6.57199 38.3706 6.61369 38.6632 6.67207H38.7552C39.1231 6.73044 39.4827 6.81384 39.8506 6.8889H39.9008C40.2604 6.96395 40.6115 7.05569 40.9627 7.15576C41.1551 7.2058 41.3474 7.25584 41.5397 7.32255L41.8993 7.42263L42.3341 7.5644C42.3842 7.57217 42.4324 7.58914 42.4762 7.61444C42.6853 7.67282 42.886 7.73953 43.0867 7.81459C43.2873 7.88964 43.6051 8.0064 43.8559 8.11481C44.1068 8.22323 44.1737 8.23157 44.3242 8.28994L44.7841 8.48175L45.2273 8.6819L45.3862 8.74028L45.6537 8.87371L45.9297 9.00715L46.1136 9.09054L46.1973 9.13224L46.4732 9.27401H46.5568L46.8829 9.44914L46.9833 9.50752H47.0752L47.209 9.57424L47.2927 9.62428L47.7358 9.87446L47.8529 9.94118L47.9616 9.99956L48.2125 10.1497L48.4717 10.3081L48.572 10.3665C48.7275 10.456 48.8782 10.5534 49.0236 10.6584C49.2182 10.7651 49.4054 10.8849 49.5838 11.017C49.7928 11.1588 50.0019 11.2922 50.2026 11.4423C50.6541 11.7509 51.0889 12.0928 51.5237 12.4347L51.8164 12.6766C51.8676 12.7138 51.9152 12.7556 51.9586 12.8017L52.4519 13.2186L52.5188 13.2687C60.3706 20.3323 63.4979 31.1153 61.5412 41.0978C61.1356 43.1735 60.5018 45.1984 59.6514 47.1357C58.5894 49.3215 57.2579 51.3666 55.6879 53.2235V53.2235Z" fill="#323232"/>
<path d="M16.3876 44.5498C16.3892 45.1027 16.2264 45.6437 15.9196 46.1042C15.6128 46.5648 15.1759 46.9241 14.6641 47.1369C14.1524 47.3496 13.5889 47.4061 13.045 47.2993C12.5011 47.1924 12.0012 46.927 11.6086 46.5366C11.216 46.1462 10.9484 45.6484 10.8396 45.1063C10.7308 44.5641 10.7858 44.002 10.9976 43.491C11.2094 42.98 11.5684 42.5432 12.0292 42.2358C12.4901 41.9285 13.032 41.7644 13.5864 41.7644C13.9538 41.7633 14.3179 41.8346 14.6577 41.974C14.9975 42.1135 15.3064 42.3185 15.5666 42.5773C15.8268 42.8361 16.0333 43.1435 16.1742 43.482C16.3151 43.8205 16.3876 44.1833 16.3876 44.5498V44.5498Z" fill="#B9B9B9"/>
<path d="M34.3149 60.4369C34.3149 60.4369 50.5453 54.6742 45.3609 36.7608C45.3192 36.634 45.3217 36.4968 45.368 36.3716C45.4142 36.2463 45.5016 36.1404 45.6158 36.0708C45.7301 36.0013 45.8645 35.9723 45.9973 35.9886C46.1302 36.0048 46.2536 36.0654 46.3476 36.1604C48.5133 38.2703 52.2009 40.914 55.2697 38.6623C57.0922 37.2363 58.3724 35.2329 58.8987 32.983C58.9331 32.8412 59.0187 32.7171 59.1392 32.6344C59.2596 32.5517 59.4065 32.5163 59.5515 32.5349C59.6966 32.5535 59.8296 32.6248 59.9252 32.7352C60.0208 32.8456 60.0721 32.9873 60.0694 33.1331C60.1948 41.7396 57.218 57.5431 34.3149 60.4369Z" fill="#B9B9B9"/>
<path d="M52.5935 38.6371C54.4176 38.6371 55.8964 37.1623 55.8964 35.343C55.8964 33.5237 54.4176 32.0488 52.5935 32.0488C50.7693 32.0488 49.2905 33.5237 49.2905 35.343C49.2905 37.1623 50.7693 38.6371 52.5935 38.6371Z" fill="#B9B9B9"/>
<path d="M39.2064 44.2501C40.3269 47.736 40.4523 50.7716 39.5659 53.2735C38.111 57.3599 34.206 59.1112 31.2041 59.8868C29.7941 60.248 28.3451 60.4357 26.8894 60.4455C14.3467 60.4455 7.65718 46.2682 7.65718 46.1431C7.30599 45.3592 7.84114 44.8922 8.49337 45.4426C8.95671 45.8336 9.43952 46.201 9.93996 46.5434C13.9787 49.3038 16.9555 47.8611 18.2433 43.5329C18.2839 43.4068 18.3663 43.2983 18.4769 43.2252C18.5875 43.152 18.7197 43.1185 18.8519 43.1301C18.9841 43.1417 19.1085 43.1978 19.2045 43.2892C19.3005 43.3806 19.3626 43.5018 19.3805 43.6329C20.0578 50.1545 22.5831 59.8117 31.756 57.2765C33.9886 56.5426 36.4386 55.1415 37.3751 52.4896C38.0859 50.4881 37.9605 47.9528 37.0072 44.9839C36.3268 43.0555 35.5051 41.1796 34.5488 39.3714C33.6287 37.6359 32.8242 35.8418 32.1406 34.0007C30.6355 29.7059 30.6271 25.2609 32.1406 21.7833C33.4058 18.9198 35.7346 16.6569 38.6378 15.4702C38.7827 15.4089 38.9384 15.3766 39.0958 15.3753C39.2533 15.3739 39.4094 15.4036 39.5554 15.4624C39.7014 15.5213 39.8343 15.6082 39.9466 15.7183C40.0589 15.8284 40.1483 15.9595 40.2098 16.104C40.2713 16.2486 40.3036 16.4038 40.305 16.5608C40.3063 16.7179 40.2766 16.8736 40.2176 17.0192C40.1586 17.1648 40.0714 17.2974 39.9611 17.4093C39.8507 17.5213 39.7193 17.6105 39.5743 17.6719C37.2427 18.6223 35.3679 20.4323 34.3398 22.7256C33.0688 25.6528 33.1022 29.4807 34.4151 33.2252C35.0643 34.9672 35.824 36.6664 36.6895 38.3123C37.6886 40.2202 38.5303 42.206 39.2064 44.2501V44.2501Z" fill="#B9B9B9"/>
<path d="M41.0302 10.3582C41.0302 10.9636 40.8502 11.5553 40.513 12.0586C40.1758 12.5619 39.6965 12.9542 39.1358 13.1859C38.575 13.4175 37.958 13.4781 37.3627 13.3601C36.7674 13.242 36.2206 12.9505 35.7914 12.5224C35.3622 12.0944 35.07 11.549 34.9515 10.9553C34.8331 10.3616 34.8939 9.74625 35.1262 9.18699C35.3584 8.62774 35.7518 8.14973 36.2564 7.81343C36.7611 7.47712 37.3544 7.29762 37.9614 7.29762C38.3647 7.29652 38.7642 7.37493 39.1371 7.52835C39.5099 7.68177 39.8486 7.90718 40.1338 8.1916C40.419 8.47602 40.645 8.81386 40.7988 9.18569C40.9527 9.55752 41.0313 9.956 41.0302 10.3582V10.3582Z" fill="#B9B9B9"/>
<path d="M49.601 14.6358C49.601 15.2415 49.4208 15.8336 49.0832 16.3371C48.7456 16.8406 48.2658 17.2329 47.7046 17.4643C47.1434 17.6957 46.5259 17.7558 45.9304 17.637C45.3349 17.5182 44.7881 17.2259 44.3593 16.797C43.9304 16.3682 43.6388 15.822 43.5213 15.2278C43.4039 14.6335 43.4658 14.0179 43.6994 13.4588C43.9329 12.8997 44.3276 12.4223 44.8333 12.087C45.3391 11.7517 45.9332 11.5736 46.5405 11.5752C46.9431 11.5752 47.3418 11.6544 47.7136 11.8083C48.0855 11.9623 48.4232 12.1878 48.7075 12.4721C48.9918 12.7565 49.2171 13.0939 49.3704 13.4652C49.5237 13.8365 49.6021 14.2343 49.601 14.6358V14.6358Z" fill="#B9B9B9"/>
<path d="M31.0718 10.366C31.0734 10.7966 30.9464 11.218 30.707 11.5763C30.4676 11.9347 30.1267 12.2138 29.7276 12.3782C29.3285 12.5426 28.8894 12.5847 28.4662 12.4993C28.0431 12.4138 27.655 12.2046 27.3515 11.8984C27.048 11.5921 26.8427 11.2026 26.762 10.7796C26.6812 10.3566 26.7286 9.9192 26.8981 9.52314C27.0675 9.12708 27.3514 8.7903 27.7134 8.55574C28.0755 8.32117 28.4994 8.19945 28.9311 8.20607C29.5012 8.21265 30.0456 8.44312 30.4463 8.84748C30.8471 9.25184 31.0718 9.79747 31.0718 10.366V10.366Z" fill="#B9B9B9"/>
<path d="M55.2451 19.8484C55.2468 20.2776 55.1206 20.6977 54.8828 21.0553C54.6449 21.413 54.3059 21.6922 53.9088 21.8576C53.5117 22.023 53.0743 22.0671 52.652 21.9844C52.2298 21.9017 51.8416 21.6958 51.5367 21.3929C51.2318 21.09 51.0239 20.7037 50.9394 20.2829C50.8548 19.862 50.8974 19.4256 51.0617 19.0289C51.226 18.6322 51.5046 18.2931 51.8623 18.0545C52.22 17.8159 52.6407 17.6885 53.071 17.6885C53.6455 17.6907 54.196 17.9187 54.603 18.323C55.01 18.7274 55.2407 19.2755 55.2451 19.8484V19.8484Z" fill="#B9B9B9"/>
<path d="M22.6759 13.2185C22.6775 13.4184 22.6196 13.6144 22.5094 13.7814C22.3993 13.9484 22.2418 14.0791 22.0571 14.1567C21.8724 14.2344 21.6687 14.2556 21.4719 14.2176C21.2751 14.1796 21.094 14.0841 20.9517 13.9433C20.8093 13.8026 20.7121 13.6228 20.6724 13.4268C20.6327 13.2308 20.6522 13.0275 20.7286 12.8427C20.8049 12.6578 20.9346 12.4997 21.1011 12.3884C21.2677 12.2772 21.4636 12.2178 21.6641 12.2178C21.931 12.2178 22.1871 12.3229 22.3766 12.5104C22.5661 12.6978 22.6737 12.9523 22.6759 13.2185V13.2185Z" fill="#B9B9B9"/>
<path d="M57.9039 25.0689C57.9056 25.2692 57.8474 25.4654 57.7369 25.6326C57.6263 25.7998 57.4684 25.9305 57.2832 26.0079C57.098 26.0853 56.8939 26.106 56.6968 26.0673C56.4998 26.0286 56.3187 25.9324 56.1767 25.7907C56.0347 25.6491 55.9382 25.4685 55.8994 25.272C55.8606 25.0755 55.8814 24.8719 55.959 24.6872C56.0366 24.5025 56.1676 24.345 56.3352 24.2347C56.5029 24.1245 56.6997 24.0665 56.9005 24.0681C57.0323 24.0681 57.1627 24.094 57.2845 24.1443C57.4062 24.1946 57.5168 24.2683 57.61 24.3613C57.7032 24.4542 57.7771 24.5645 57.8275 24.6859C57.878 24.8073 57.9039 24.9375 57.9039 25.0689V25.0689Z" fill="#B9B9B9"/>
<path d="M80.0983 22.6708C80.0983 22.8443 79.9577 22.9849 79.7843 22.9849H77.8834C77.7779 22.9849 77.6795 22.932 77.6214 22.844L74.1283 17.5585L71.1181 13.0039C70.9465 12.7441 70.5421 12.8656 70.5421 13.177V22.6708C70.5421 22.8443 70.4014 22.9849 70.228 22.9849H68.4723C68.2988 22.9849 68.1582 22.8443 68.1582 22.6708V8.74502C68.1582 8.57156 68.2988 8.43095 68.4723 8.43095H70.3733C70.4787 8.43095 70.577 8.48378 70.6352 8.57162L77.1386 18.393C77.3104 18.6525 77.7145 18.5309 77.7145 18.2196V8.74502C77.7145 8.57156 77.8551 8.43095 78.0286 8.43095H79.7843C79.9577 8.43095 80.0983 8.57156 80.0983 8.74502V22.6708Z" fill="#606060"/>
<path d="M82.4341 17.1717C82.4341 16.0146 82.6711 14.99 83.1451 14.0978C83.633 13.2056 84.2882 12.5155 85.1107 12.0276C85.9472 11.5258 86.8672 11.2748 87.871 11.2748C88.7771 11.2748 89.5647 11.4561 90.2339 11.8185C90.6048 12.0077 90.9346 12.2237 91.2233 12.4664C91.4533 12.6597 91.8649 12.5072 91.8649 12.2067V11.7771C91.8649 11.6036 92.0055 11.463 92.179 11.463H93.9556C94.1291 11.463 94.2697 11.6036 94.2697 11.7771V22.6708C94.2697 22.8443 94.1291 22.9849 93.9556 22.9849H92.179C92.0055 22.9849 91.8649 22.8443 91.8649 22.6708V22.2189C91.8649 21.9165 91.4469 21.7638 91.217 21.9605C90.9253 22.2101 90.5906 22.433 90.213 22.6294C89.5159 22.9919 88.7213 23.1731 87.8291 23.1731C86.8394 23.1731 85.9332 22.9222 85.1107 22.4203C84.2882 21.9045 83.633 21.1935 83.1451 20.2874C82.6711 19.3673 82.4341 18.3288 82.4341 17.1717ZM91.8649 17.2135C91.8649 16.4189 91.6976 15.7288 91.3631 15.1433C91.0424 14.5578 90.6173 14.1117 90.0875 13.805C89.5578 13.4983 88.9862 13.345 88.3728 13.345C87.7594 13.345 87.1879 13.4983 86.6581 13.805C86.1284 14.0978 85.6962 14.5369 85.3617 15.1224C85.041 15.694 84.8807 16.3771 84.8807 17.1717C84.8807 17.9663 85.041 18.6633 85.3617 19.2628C85.6962 19.8622 86.1284 20.3223 86.6581 20.6429C87.2018 20.9496 87.7734 21.1029 88.3728 21.1029C88.9862 21.1029 89.5578 20.9496 90.0875 20.6429C90.6173 20.3362 91.0424 19.8901 91.3631 19.3046C91.6976 18.7052 91.8649 18.0081 91.8649 17.2135Z" fill="#606060"/>
<path d="M100.496 13.4077C100.323 13.4077 100.182 13.5483 100.182 13.7218V19.7855C100.182 20.2177 100.279 20.5314 100.475 20.7265C100.684 20.9078 101.032 20.9984 101.52 20.9984H102.67C102.843 20.9984 102.984 21.139 102.984 21.3125V22.6708C102.984 22.8443 102.843 22.9849 102.67 22.9849H101.102C100.029 22.9849 99.2061 22.734 98.6345 22.2321C98.0629 21.7303 97.7772 20.9147 97.7772 19.7855V13.7218C97.7772 13.5483 97.6365 13.4077 97.4631 13.4077H96.732C96.5586 13.4077 96.4179 13.2671 96.4179 13.0937V11.7771C96.4179 11.6036 96.5586 11.463 96.732 11.463H97.4631C97.6365 11.463 97.7772 11.3224 97.7772 11.149V8.91231C97.7772 8.73885 97.9178 8.59824 98.0912 8.59824H99.8678C100.041 8.59824 100.182 8.73885 100.182 8.91231V11.149C100.182 11.3224 100.323 11.463 100.496 11.463H102.67C102.843 11.463 102.984 11.6036 102.984 11.7771V13.0937C102.984 13.2671 102.843 13.4077 102.67 13.4077H100.496Z" fill="#606060"/>
<path d="M106.394 9.93653C105.962 9.93653 105.599 9.79016 105.307 9.4974C105.014 9.20465 104.867 8.8422 104.867 8.41004C104.867 7.97788 105.014 7.61543 105.307 7.32267C105.599 7.02992 105.962 6.88354 106.394 6.88354C106.812 6.88354 107.168 7.02992 107.46 7.32267C107.753 7.61543 107.899 7.97788 107.899 8.41004C107.899 8.8422 107.753 9.20465 107.46 9.4974C107.168 9.79016 106.812 9.93653 106.394 9.93653ZM107.251 11.463C107.424 11.463 107.565 11.6036 107.565 11.7771V22.6708C107.565 22.8443 107.424 22.9849 107.251 22.9849H105.495C105.322 22.9849 105.181 22.8443 105.181 22.6708V11.7771C105.181 11.6036 105.322 11.463 105.495 11.463H107.251Z" fill="#606060"/>
<path d="M115.692 23.1731C114.605 23.1731 113.622 22.9291 112.744 22.4412C111.866 21.9394 111.176 21.2423 110.674 20.3501C110.172 19.444 109.921 18.3985 109.921 17.2135C109.921 16.0425 110.179 15.0039 110.695 14.0978C111.21 13.1917 111.914 12.4946 112.807 12.0067C113.699 11.5188 114.696 11.2748 115.797 11.2748C116.898 11.2748 117.895 11.5188 118.787 12.0067C119.679 12.4946 120.383 13.1917 120.899 14.0978C121.415 15.0039 121.673 16.0425 121.673 17.2135C121.673 18.3845 121.408 19.4231 120.878 20.3292C120.349 21.2354 119.624 21.9394 118.704 22.4412C117.797 22.9291 116.794 23.1731 115.692 23.1731ZM115.692 21.1029C116.306 21.1029 116.877 20.9566 117.407 20.6638C117.951 20.3711 118.39 19.9319 118.724 19.3464C119.059 18.7609 119.226 18.0499 119.226 17.2135C119.226 16.3771 119.066 15.6731 118.745 15.1015C118.425 14.516 118 14.0769 117.47 13.7841C116.94 13.4914 116.368 13.345 115.755 13.345C115.142 13.345 114.57 13.4914 114.04 13.7841C113.525 14.0769 113.113 14.516 112.807 15.1015C112.5 15.6731 112.347 16.3771 112.347 17.2135C112.347 18.4542 112.66 19.4161 113.288 20.0992C113.929 20.7684 114.73 21.1029 115.692 21.1029Z" fill="#606060"/>
<path d="M129.843 11.2748C130.749 11.2748 131.557 11.463 132.268 11.8394C132.993 12.2158 133.558 12.7734 133.962 13.5123C134.366 14.2511 134.569 15.1433 134.569 16.1889V22.6708C134.569 22.8443 134.428 22.9849 134.254 22.9849H132.52C132.346 22.9849 132.206 22.8443 132.206 22.6708V16.5444C132.206 15.5128 131.948 14.7251 131.432 14.1814C130.916 13.6238 130.212 13.345 129.32 13.345C128.428 13.345 127.717 13.6238 127.187 14.1814C126.671 14.7251 126.413 15.5128 126.413 16.5444V22.6708C126.413 22.8443 126.273 22.9849 126.099 22.9849H124.344C124.17 22.9849 124.029 22.8443 124.029 22.6708V11.7771C124.029 11.6036 124.17 11.463 124.344 11.463H126.099C126.273 11.463 126.413 11.6036 126.413 11.7771V11.905C126.413 12.1996 126.808 12.3532 127.042 12.1743C127.299 11.9782 127.584 11.8108 127.898 11.6721C128.511 11.4073 129.16 11.2748 129.843 11.2748Z" fill="#606060"/>
<path d="M136.815 17.1717C136.815 16.0146 137.052 14.99 137.526 14.0978C138.014 13.2056 138.669 12.5155 139.491 12.0276C140.328 11.5258 141.248 11.2748 142.251 11.2748C143.158 11.2748 143.945 11.4561 144.614 11.8185C144.985 12.0077 145.315 12.2237 145.604 12.4664C145.834 12.6597 146.245 12.5072 146.245 12.2067V11.7771C146.245 11.6036 146.386 11.463 146.56 11.463H148.336C148.51 11.463 148.65 11.6036 148.65 11.7771V22.6708C148.65 22.8443 148.51 22.9849 148.336 22.9849H146.56C146.386 22.9849 146.245 22.8443 146.245 22.6708V22.2189C146.245 21.9165 145.827 21.7638 145.598 21.9605C145.306 22.2101 144.971 22.433 144.593 22.6294C143.896 22.9919 143.102 23.1731 142.21 23.1731C141.22 23.1731 140.314 22.9222 139.491 22.4203C138.669 21.9045 138.014 21.1935 137.526 20.2874C137.052 19.3673 136.815 18.3288 136.815 17.1717ZM146.245 17.2135C146.245 16.4189 146.078 15.7288 145.744 15.1433C145.423 14.5578 144.998 14.1117 144.468 13.805C143.938 13.4983 143.367 13.345 142.753 13.345C142.14 13.345 141.568 13.4983 141.039 13.805C140.509 14.0978 140.077 14.5369 139.742 15.1224C139.422 15.694 139.261 16.3771 139.261 17.1717C139.261 17.9663 139.422 18.6633 139.742 19.2628C140.077 19.8622 140.509 20.3223 141.039 20.6429C141.582 20.9496 142.154 21.1029 142.753 21.1029C143.367 21.1029 143.938 20.9496 144.468 20.6429C144.998 20.3362 145.423 19.8901 145.744 19.3046C146.078 18.7052 146.245 18.0081 146.245 17.2135Z" fill="#606060"/>
<path d="M153.851 7.51087C154.024 7.51087 154.165 7.65149 154.165 7.82494V22.6708C154.165 22.8443 154.024 22.9849 153.851 22.9849H152.095C151.922 22.9849 151.781 22.8443 151.781 22.6708V7.82494C151.781 7.65149 151.922 7.51087 152.095 7.51087H153.851Z" fill="#606060"/>
<path d="M72.9468 43.14C71.971 43.14 71.0927 42.9727 70.312 42.6381C69.5314 42.2896 68.918 41.8017 68.4719 41.1743C68.0825 40.6267 67.863 39.9995 67.8135 39.2925C67.8014 39.1195 67.9433 38.9787 68.1168 38.9787H70.0665C70.2291 38.9787 70.3627 39.1035 70.3935 39.2632C70.49 39.7637 70.7208 40.1847 71.0857 40.5261C71.5318 40.9304 72.1522 41.1325 72.9468 41.1325C73.7693 41.1325 74.4106 40.9373 74.8706 40.547C75.3306 40.1427 75.5607 39.6269 75.5607 38.9996C75.5607 38.5117 75.4143 38.1144 75.1215 37.8077C74.8427 37.501 74.4872 37.264 74.0551 37.0967C73.6369 36.9294 73.0514 36.7482 72.2986 36.553C71.3506 36.3021 70.5769 36.0512 69.9775 35.8002C69.392 35.5354 68.8901 35.1311 68.4719 34.5874C68.0537 34.0437 67.8446 33.3188 67.8446 32.4127C67.8446 31.5763 68.0537 30.8444 68.4719 30.217C68.8901 29.5897 69.4756 29.1088 70.2284 28.7742C70.9812 28.4396 71.8525 28.2723 72.8423 28.2723C74.2503 28.2723 75.4003 28.6278 76.2925 29.3388C77.1138 29.9705 77.603 30.8198 77.7601 31.8866C77.7868 32.068 77.6414 32.2245 77.4581 32.2245H75.4536C75.2897 32.2245 75.1565 32.0974 75.1186 31.938C75.0214 31.5295 74.7854 31.172 74.4106 30.8653C73.9505 30.4889 73.3441 30.3007 72.5913 30.3007C71.9082 30.3007 71.3506 30.4749 70.9185 30.8235C70.4863 31.172 70.2702 31.6738 70.2702 32.329C70.2702 32.7751 70.4027 33.1446 70.6675 33.4373C70.9463 33.7161 71.2948 33.9392 71.7131 34.1065C72.1313 34.2738 72.7028 34.455 73.4278 34.6501C74.3897 34.915 75.1703 35.1799 75.7698 35.4448C76.3832 35.7096 76.899 36.1209 77.3172 36.6785C77.7493 37.2222 77.9654 37.9541 77.9654 38.8741C77.9654 39.613 77.7633 40.31 77.359 40.9652C76.9687 41.6204 76.3901 42.1502 75.6234 42.5545C74.8706 42.9448 73.9784 43.14 72.9468 43.14Z" fill="#606060"/>
<path d="M85.776 43.1818C84.6886 43.1818 83.7058 42.9378 82.8275 42.4499C81.9493 41.948 81.2592 41.251 80.7573 40.3588C80.2555 39.4527 80.0046 38.4071 80.0046 37.2222C80.0046 36.0512 80.2625 35.0126 80.7783 34.1065C81.2941 33.2003 81.9981 32.5033 82.8903 32.0154C83.7824 31.5275 84.7792 31.2835 85.8805 31.2835C86.9818 31.2835 87.9786 31.5275 88.8708 32.0154C89.763 32.5033 90.467 33.2003 90.9828 34.1065C91.4986 35.0126 91.7565 36.0512 91.7565 37.2222C91.7565 38.3932 91.4916 39.4318 90.9618 40.3379C90.4321 41.244 89.7072 41.948 88.7871 42.4499C87.881 42.9378 86.8773 43.1818 85.776 43.1818ZM85.776 41.1116C86.3893 41.1116 86.9609 40.9652 87.4906 40.6725C88.0343 40.3797 88.4735 39.9406 88.808 39.3551C89.1426 38.7696 89.3099 38.0586 89.3099 37.2222C89.3099 36.3857 89.1496 35.6818 88.8289 35.1102C88.5083 34.5247 88.0831 34.0856 87.5534 33.7928C87.0236 33.5 86.4521 33.3537 85.8387 33.3537C85.2253 33.3537 84.6537 33.5 84.124 33.7928C83.6082 34.0856 83.1969 34.5247 82.8903 35.1102C82.5836 35.6818 82.4302 36.3857 82.4302 37.2222C82.4302 38.4629 82.7439 39.4248 83.3712 40.1079C84.0125 40.777 84.8141 41.1116 85.776 41.1116Z" fill="#606060"/>
<path d="M93.3184 37.2222C93.3184 36.0372 93.5554 34.9987 94.0294 34.1065C94.5173 33.2003 95.1864 32.5033 96.0368 32.0154C96.8872 31.5275 97.863 31.2835 98.9643 31.2835C100.358 31.2835 101.508 31.6181 102.415 32.2872C103.235 32.8712 103.817 33.6821 104.16 34.7201C104.225 34.9154 104.075 35.1102 103.869 35.1102H101.923C101.791 35.1102 101.675 35.0272 101.622 34.9066C101.411 34.4317 101.104 34.0534 100.7 33.7719C100.24 33.4513 99.6614 33.2909 98.9643 33.2909C97.9885 33.2909 97.2078 33.6395 96.6223 34.3365C96.0508 35.0196 95.765 35.9815 95.765 37.2222C95.765 38.4629 96.0508 39.4318 96.6223 40.1288C97.2078 40.8258 97.9885 41.1743 98.9643 41.1743C100.265 41.1743 101.151 40.6357 101.622 39.5585C101.675 39.4379 101.791 39.3551 101.923 39.3551H103.859C104.068 39.3551 104.219 39.5551 104.148 39.7514C103.792 40.7387 103.208 41.5406 102.394 42.1571C101.474 42.8402 100.331 43.1818 98.9643 43.1818C97.863 43.1818 96.8872 42.9378 96.0368 42.4499C95.1864 41.948 94.5173 41.251 94.0294 40.3588C93.5554 39.4527 93.3184 38.4071 93.3184 37.2222Z" fill="#606060"/>
<path d="M107.864 29.9452C107.432 29.9452 107.07 29.7988 106.777 29.5061C106.484 29.2133 106.338 28.8509 106.338 28.4187C106.338 27.9866 106.484 27.6241 106.777 27.3313C107.07 27.0386 107.432 26.8922 107.864 26.8922C108.282 26.8922 108.638 27.0386 108.931 27.3313C109.223 27.6241 109.37 27.9866 109.37 28.4187C109.37 28.8509 109.223 29.2133 108.931 29.5061C108.638 29.7988 108.282 29.9452 107.864 29.9452ZM108.721 31.4717C108.895 31.4717 109.035 31.6123 109.035 31.7858V42.6795C109.035 42.853 108.895 42.9936 108.721 42.9936H106.965C106.792 42.9936 106.651 42.853 106.651 42.6795V31.7858C106.651 31.6123 106.792 31.4717 106.965 31.4717H108.721Z" fill="#606060"/>
<path d="M111.37 37.1804C111.37 36.0233 111.607 34.9987 112.081 34.1065C112.569 33.2143 113.224 32.5242 114.047 32.0363C114.883 31.5344 115.803 31.2835 116.807 31.2835C117.713 31.2835 118.501 31.4647 119.17 31.8272C119.541 32.0164 119.871 32.2324 120.16 32.475C120.39 32.6684 120.801 32.5158 120.801 32.2153V31.7858C120.801 31.6123 120.942 31.4717 121.115 31.4717H122.892C123.065 31.4717 123.206 31.6123 123.206 31.7858V42.6795C123.206 42.853 123.065 42.9936 122.892 42.9936H121.115C120.942 42.9936 120.801 42.853 120.801 42.6795V42.2276C120.801 41.9251 120.383 41.7725 120.153 41.9692C119.862 42.2187 119.527 42.4417 119.149 42.6381C118.452 43.0006 117.658 43.1818 116.765 43.1818C115.776 43.1818 114.869 42.9308 114.047 42.429C113.224 41.9132 112.569 41.2022 112.081 40.2961C111.607 39.376 111.37 38.3374 111.37 37.1804ZM120.801 37.2222C120.801 36.4276 120.634 35.7375 120.299 35.152C119.979 34.5665 119.553 34.1204 119.024 33.8137C118.494 33.507 117.922 33.3537 117.309 33.3537C116.696 33.3537 116.124 33.507 115.594 33.8137C115.065 34.1065 114.632 34.5456 114.298 35.1311C113.977 35.7027 113.817 36.3857 113.817 37.1804C113.817 37.975 113.977 38.672 114.298 39.2714C114.632 39.8709 115.065 40.3309 115.594 40.6516C116.138 40.9583 116.71 41.1116 117.309 41.1116C117.922 41.1116 118.494 40.9583 119.024 40.6516C119.553 40.3449 119.979 39.8988 120.299 39.3133C120.634 38.7138 120.801 38.0168 120.801 37.2222Z" fill="#606060"/>
<path d="M128.407 27.5195C128.58 27.5195 128.721 27.6602 128.721 27.8336V42.6795C128.721 42.853 128.58 42.9936 128.407 42.9936H126.651C126.478 42.9936 126.337 42.853 126.337 42.6795V27.8336C126.337 27.6602 126.478 27.5195 126.651 27.5195H128.407Z" fill="#606060"/>
<path d="M72.9468 62.9203C71.971 62.9203 71.0927 62.753 70.312 62.4184C69.5314 62.0699 68.918 61.582 68.4719 60.9547C68.0825 60.4071 67.863 59.7798 67.8135 59.0729C67.8014 58.8998 67.9433 58.759 68.1168 58.759H70.0665C70.2291 58.759 70.3627 58.8838 70.3935 59.0436C70.49 59.5441 70.7208 59.965 71.0857 60.3064C71.5318 60.7107 72.1522 60.9128 72.9468 60.9128C73.7693 60.9128 74.4106 60.7177 74.8706 60.3273C75.3306 59.9231 75.5607 59.4073 75.5607 58.7799C75.5607 58.292 75.4143 57.8947 75.1215 57.588C74.8427 57.2813 74.4872 57.0443 74.0551 56.877C73.6369 56.7098 73.0514 56.5285 72.2986 56.3334C71.3506 56.0824 70.5769 55.8315 69.9775 55.5806C69.392 55.3157 68.8901 54.9114 68.4719 54.3677C68.0537 53.8241 67.8446 53.0992 67.8446 52.193C67.8446 51.3566 68.0537 50.6247 68.4719 49.9974C68.8901 49.37 69.4756 48.8891 70.2284 48.5545C70.9812 48.2199 71.8525 48.0527 72.8423 48.0527C74.2503 48.0527 75.4003 48.4081 76.2925 49.1191C77.1138 49.7508 77.603 50.6001 77.7601 51.667C77.7868 51.8483 77.6414 52.0048 77.4581 52.0048H75.4536C75.2897 52.0048 75.1565 51.8777 75.1186 51.7183C75.0214 51.3098 74.7854 50.9523 74.4106 50.6456C73.9505 50.2692 73.3441 50.081 72.5913 50.081C71.9082 50.081 71.3506 50.2553 70.9185 50.6038C70.4863 50.9523 70.2702 51.4542 70.2702 52.1094C70.2702 52.5555 70.4027 52.9249 70.6675 53.2176C70.9463 53.4965 71.2948 53.7195 71.7131 53.8868C72.1313 54.0541 72.7028 54.2353 73.4278 54.4305C74.3897 54.6953 75.1703 54.9602 75.7698 55.2251C76.3832 55.49 76.899 55.9012 77.3172 56.4588C77.7493 57.0025 77.9654 57.7344 77.9654 58.6545C77.9654 59.3933 77.7633 60.0904 77.359 60.7456C76.9687 61.4008 76.3901 61.9305 75.6234 62.3348C74.8706 62.7251 73.9784 62.9203 72.9468 62.9203Z" fill="#606060"/>
<path d="M90.8987 51.252C91.0722 51.252 91.2128 51.3926 91.2128 51.5661V62.4598C91.2128 62.6333 91.0722 62.7739 90.8987 62.7739H89.143C88.9696 62.7739 88.8289 62.6333 88.8289 62.4598V62.3152C88.8289 62.0178 88.4234 61.8624 88.1874 62.0434C87.9369 62.2354 87.6559 62.4022 87.3443 62.5439C86.7448 62.8088 86.1036 62.9412 85.4205 62.9412C84.5143 62.9412 83.6988 62.753 82.9739 62.3766C82.2629 62.0002 81.6983 61.4426 81.2801 60.7037C80.8758 59.9649 80.6737 59.0727 80.6737 58.0271V51.5661C80.6737 51.3926 80.8143 51.252 80.9878 51.252H82.7226C82.896 51.252 83.0366 51.3926 83.0366 51.5661V57.6717C83.0366 58.7033 83.2945 59.4979 83.8103 60.0555C84.3261 60.5992 85.0301 60.871 85.9223 60.871C86.8145 60.871 87.5185 60.5992 88.0343 60.0555C88.5641 59.4979 88.8289 58.7033 88.8289 57.6717V51.5661C88.8289 51.3926 88.9696 51.252 89.143 51.252H90.8987Z" fill="#606060"/>
<path d="M108.306 51.0638C109.212 51.0638 110.02 51.252 110.731 51.6284C111.456 52.0048 112.021 52.5624 112.425 53.3013C112.843 54.0401 113.052 54.9323 113.052 55.9779V62.4598C113.052 62.6333 112.912 62.7739 112.738 62.7739H111.004C110.83 62.7739 110.689 62.6333 110.689 62.4598V56.3334C110.689 55.3018 110.432 54.5141 109.916 53.9704C109.4 53.4128 108.696 53.134 107.804 53.134C106.912 53.134 106.201 53.4128 105.671 53.9704C105.155 54.5141 104.897 55.3018 104.897 56.3334V62.4598C104.897 62.6333 104.757 62.7739 104.583 62.7739H102.848C102.675 62.7739 102.534 62.6333 102.534 62.4598V56.3334C102.534 55.3018 102.276 54.5141 101.761 53.9704C101.245 53.4128 100.541 53.134 99.6485 53.134C98.7563 53.134 98.0453 53.4128 97.5156 53.9704C96.9998 54.5141 96.7419 55.3018 96.7419 56.3334V62.4598C96.7419 62.6333 96.6013 62.7739 96.4278 62.7739H94.6721C94.4987 62.7739 94.3581 62.6333 94.3581 62.4598V51.5661C94.3581 51.3926 94.4987 51.252 94.6721 51.252H96.4278C96.6013 51.252 96.7419 51.3926 96.7419 51.5661V51.694C96.7419 51.9887 97.1367 52.1422 97.3708 51.9633C97.6274 51.7672 97.9127 51.5998 98.2266 51.4611C98.826 51.1963 99.4673 51.0638 100.15 51.0638C101.07 51.0638 101.893 51.259 102.618 51.6493C103.163 51.9427 103.613 52.3344 103.969 52.8245C104.119 53.0313 104.457 53.0281 104.608 52.8216C104.94 52.3655 105.378 51.9887 105.922 51.6912C106.661 51.2729 107.455 51.0638 108.306 51.0638Z" fill="#606060"/>
<path d="M130.033 51.0638C130.939 51.0638 131.748 51.252 132.459 51.6284C133.184 52.0048 133.748 52.5624 134.153 53.3013C134.571 54.0401 134.78 54.9323 134.78 55.9779V62.4598C134.78 62.6333 134.639 62.7739 134.466 62.7739H132.731C132.558 62.7739 132.417 62.6333 132.417 62.4598V56.3334C132.417 55.3018 132.159 54.5141 131.643 53.9704C131.128 53.4128 130.424 53.134 129.531 53.134C128.639 53.134 127.928 53.4128 127.399 53.9704C126.883 54.5141 126.625 55.3018 126.625 56.3334V62.4598C126.625 62.6333 126.484 62.7739 126.311 62.7739H124.576C124.403 62.7739 124.262 62.6333 124.262 62.4598V56.3334C124.262 55.3018 124.004 54.5141 123.488 53.9704C122.972 53.4128 122.268 53.134 121.376 53.134C120.484 53.134 119.773 53.4128 119.243 53.9704C118.727 54.5141 118.47 55.3018 118.47 56.3334V62.4598C118.47 62.6333 118.329 62.7739 118.156 62.7739H116.4C116.226 62.7739 116.086 62.6333 116.086 62.4598V51.5661C116.086 51.3926 116.226 51.252 116.4 51.252H118.156C118.329 51.252 118.47 51.3926 118.47 51.5661V51.694C118.47 51.9887 118.864 52.1422 119.099 51.9633C119.355 51.7672 119.64 51.5998 119.954 51.4611C120.554 51.1963 121.195 51.0638 121.878 51.0638C122.798 51.0638 123.621 51.259 124.346 51.6493C124.89 51.9427 125.341 52.3344 125.696 52.8245C125.847 53.0313 126.185 53.0281 126.335 52.8216C126.668 52.3655 127.106 51.9887 127.649 51.6912C128.388 51.2729 129.183 51.0638 130.033 51.0638Z" fill="#606060"/>
<path d="M139.026 49.7255C138.594 49.7255 138.232 49.5792 137.939 49.2864C137.646 48.9937 137.5 48.6312 137.5 48.199C137.5 47.7669 137.646 47.4044 137.939 47.1117C138.232 46.8189 138.594 46.6725 139.026 46.6725C139.445 46.6725 139.8 46.8189 140.093 47.1117C140.385 47.4044 140.532 47.7669 140.532 48.199C140.532 48.6312 140.385 48.9937 140.093 49.2864C139.8 49.5792 139.445 49.7255 139.026 49.7255ZM139.883 51.252C140.057 51.252 140.197 51.3926 140.197 51.5661V62.4598C140.197 62.6333 140.057 62.7739 139.883 62.7739H138.128C137.954 62.7739 137.813 62.6333 137.813 62.4598V51.5661C137.813 51.3926 137.954 51.252 138.128 51.252H139.883Z" fill="#606060"/>
<path d="M146.422 53.1967C146.249 53.1967 146.108 53.3373 146.108 53.5108V59.5746C146.108 60.0067 146.206 60.3204 146.401 60.5155C146.61 60.6968 146.959 60.7874 147.447 60.7874H148.596C148.77 60.7874 148.91 60.928 148.91 61.1015V62.4598C148.91 62.6333 148.77 62.7739 148.596 62.7739H147.028C145.955 62.7739 145.132 62.523 144.561 62.0211C143.989 61.5193 143.703 60.7037 143.703 59.5746V53.5108C143.703 53.3373 143.563 53.1967 143.389 53.1967H142.658C142.485 53.1967 142.344 53.0561 142.344 52.8827V51.5661C142.344 51.3926 142.485 51.252 142.658 51.252H143.389C143.563 51.252 143.703 51.1114 143.703 50.938V48.7013C143.703 48.5279 143.844 48.3872 144.018 48.3872H145.794C145.968 48.3872 146.108 48.5279 146.108 48.7013V50.938C146.108 51.1114 146.249 51.252 146.422 51.252H148.596C148.77 51.252 148.91 51.3926 148.91 51.5661V52.8827C148.91 53.0561 148.77 53.1967 148.596 53.1967H146.422Z" fill="#606060"/>
</svg>
