<svg width="1001" height="505" viewBox="0 0 1001 505" fill="none" xmlns="http://www.w3.org/2000/svg">
<g clip-path="url(#clip0_502_6463)">
<rect width="1001" height="504.149" fill="url(#paint0_linear_502_6463)"/>
<g filter="url(#filter0_f_502_6463)">
<circle cx="407.177" cy="102.707" r="83.938" fill="url(#paint1_linear_502_6463)"/>
</g>
<g filter="url(#filter1_f_502_6463)">
<circle cx="988.213" cy="201.953" r="44.8552" transform="rotate(-165 988.213 201.953)" fill="url(#paint2_linear_502_6463)"/>
</g>
<g filter="url(#filter2_f_502_6463)">
<circle cx="47.003" cy="483.376" r="66.4727" transform="rotate(165 47.003 483.376)" fill="url(#paint3_linear_502_6463)"/>
</g>
<path d="M68.4056 76.4034C68.4056 85.742 67.3873 93.8388 65.3506 100.694C63.3637 107.499 60.6317 113.137 57.1545 117.608C53.6774 122.078 49.5545 125.406 44.7858 127.592C40.0668 129.778 35.0002 130.87 29.5857 130.87C24.1217 130.87 19.0301 129.778 14.3112 127.592C9.64185 125.406 5.56862 122.078 2.09148 117.608C-1.38566 113.137 -4.11771 107.499 -6.10464 100.694C-8.09158 93.8388 -9.08505 85.742 -9.08505 76.4034C-9.08505 67.0648 -8.09158 58.968 -6.10464 52.1131C-4.11771 45.2581 -1.38566 39.5953 2.09148 35.1247C5.56862 30.6044 9.64185 27.2515 14.3112 25.0658C19.0301 22.8802 24.1217 21.7874 29.5857 21.7874C35.0002 21.7874 40.0668 22.8802 44.7858 25.0658C49.5545 27.2515 53.6774 30.6044 57.1545 35.1247C60.6317 39.5953 63.3637 45.2581 65.3506 52.1131C67.3873 58.968 68.4056 67.0648 68.4056 76.4034ZM54.6212 76.4034C54.6212 68.2569 53.9257 61.4268 52.5349 55.9131C51.1937 50.3496 49.3558 45.879 47.0211 42.5012C44.7362 39.1234 42.0786 36.7143 39.0485 35.2738C36.0185 33.7835 32.8642 33.0384 29.5857 33.0384C26.3073 33.0384 23.153 33.7835 20.1229 35.2738C17.0929 36.7143 14.4353 39.1234 12.1504 42.5012C9.86538 45.879 8.02746 50.3496 6.6366 55.9131C5.29542 61.4268 4.62483 68.2569 4.62483 76.4034C4.62483 84.5498 5.29542 91.3799 6.6366 96.8937C8.02746 102.407 9.86538 106.853 12.1504 110.231C14.4353 113.609 17.0929 116.043 20.1229 117.533C23.153 118.974 26.3073 119.694 29.5857 119.694C32.8642 119.694 36.0185 118.974 39.0485 117.533C42.0786 116.043 44.7362 113.609 47.0211 110.231C49.3558 106.853 51.1937 102.407 52.5349 96.8937C53.9257 91.3799 54.6212 84.5498 54.6212 76.4034ZM148.739 119.619V129.753H91.5154V119.619H114.39V46.8228C114.39 44.6372 114.465 42.4267 114.614 40.1914L95.6134 56.5092C94.9677 57.0556 94.3219 57.4033 93.6762 57.5523C93.0304 57.6516 92.4343 57.6516 91.8879 57.5523C91.3415 57.4529 90.8199 57.2543 90.3232 56.9562C89.8761 56.6582 89.5284 56.3353 89.2801 55.9876L85.1075 50.2503L116.923 22.756H127.727V119.619H148.739Z" fill="#E9E1FF"/>
</g>
<defs>
<filter id="filter0_f_502_6463" x="313.855" y="9.38442" width="186.645" height="186.645" filterUnits="userSpaceOnUse" color-interpolation-filters="sRGB">
<feFlood flood-opacity="0" result="BackgroundImageFix"/>
<feBlend mode="normal" in="SourceGraphic" in2="BackgroundImageFix" result="shape"/>
<feGaussianBlur stdDeviation="4.69219" result="effect1_foregroundBlur_502_6463"/>
</filter>
<filter id="filter1_f_502_6463" x="933.962" y="147.702" width="108.502" height="108.501" filterUnits="userSpaceOnUse" color-interpolation-filters="sRGB">
<feFlood flood-opacity="0" result="BackgroundImageFix"/>
<feBlend mode="normal" in="SourceGraphic" in2="BackgroundImageFix" result="shape"/>
<feGaussianBlur stdDeviation="4.69219" result="effect1_foregroundBlur_502_6463"/>
</filter>
<filter id="filter2_f_502_6463" x="-28.8707" y="407.503" width="151.747" height="151.747" filterUnits="userSpaceOnUse" color-interpolation-filters="sRGB">
<feFlood flood-opacity="0" result="BackgroundImageFix"/>
<feBlend mode="normal" in="SourceGraphic" in2="BackgroundImageFix" result="shape"/>
<feGaussianBlur stdDeviation="4.69219" result="effect1_foregroundBlur_502_6463"/>
</filter>
<linearGradient id="paint0_linear_502_6463" x1="500.5" y1="0" x2="500.5" y2="504.149" gradientUnits="userSpaceOnUse">
<stop stop-color="white"/>
<stop offset="1" stop-color="#EEE8FF"/>
</linearGradient>
<linearGradient id="paint1_linear_502_6463" x1="407.374" y1="160.697" x2="468.509" y2="34.2983" gradientUnits="userSpaceOnUse">
<stop stop-color="#EAE2FF"/>
<stop offset="0.9999" stop-color="white"/>
<stop offset="1" stop-color="white"/>
</linearGradient>
<linearGradient id="paint2_linear_502_6463" x1="988.318" y1="232.942" x2="1020.99" y2="165.396" gradientUnits="userSpaceOnUse">
<stop stop-color="#EAE2FF"/>
<stop offset="0.9999" stop-color="white"/>
<stop offset="1" stop-color="white"/>
</linearGradient>
<linearGradient id="paint3_linear_502_6463" x1="47.1587" y1="529.3" x2="95.5732" y2="429.202" gradientUnits="userSpaceOnUse">
<stop stop-color="#EAE2FF"/>
<stop offset="0.9999" stop-color="white"/>
<stop offset="1" stop-color="white"/>
</linearGradient>
<clipPath id="clip0_502_6463">
<rect width="1001" height="504.149" fill="white"/>
</clipPath>
</defs>
</svg>
