<svg width="38" height="37" viewBox="0 0 38 37" fill="none" xmlns="http://www.w3.org/2000/svg">
<path d="M7.69297 11.1987C7.71186 11.011 7.68656 10.8215 7.6191 10.6453C7.55164 10.4692 7.44389 10.3113 7.30447 10.1842L4.42463 6.68928V6.16666H13.3632L20.273 21.4369L26.3471 6.16666H34.8695V6.68928L32.4074 9.06499C32.3031 9.14554 32.2226 9.25291 32.1745 9.37564C32.1265 9.49837 32.1127 9.63185 32.1346 9.76182V27.2351C32.1127 27.365 32.1265 27.4985 32.1745 27.6213C32.2226 27.744 32.3031 27.8514 32.4074 27.9319L34.8124 30.3092V30.8333H22.7196V30.3107L25.2109 27.8749C25.4561 27.6282 25.4561 27.5557 25.4561 27.1796V13.0548L18.5309 30.7747H17.5966L9.53372 13.0548V24.9318C9.46743 25.4298 9.63238 25.9339 9.9808 26.2947L13.2198 30.2537V30.7747H4.03613V30.2537L7.27363 26.2947C7.44493 26.1159 7.57206 25.8996 7.64487 25.663C7.71768 25.4263 7.73415 25.1759 7.69297 24.9318V11.1987Z" fill="#414141"/>
</svg>
