<svg width="60" height="60" viewBox="0 0 60 60" fill="none" xmlns="http://www.w3.org/2000/svg">
<path d="M21.0855 44.9082H14.5229V23.6047H21.0855V44.9082ZM17.8006 20.6987C15.7021 20.6987 14 18.9466 14 16.8312C14 15.8151 14.4004 14.8406 15.1132 14.1221C15.8259 13.4036 16.7927 13 17.8006 13C18.8086 13 19.7754 13.4036 20.4881 14.1221C21.2009 14.8406 21.6013 15.8151 21.6013 16.8312C21.6013 18.9466 19.8985 20.6987 17.8006 20.6987ZM45.6473 44.9082H39.0988V34.5378C39.0988 32.0663 39.0494 28.8968 35.6868 28.8968C32.2748 28.8968 31.7519 31.582 31.7519 34.3597V44.9082H25.1963V23.6047H31.4905V26.5107H31.5823C32.4585 24.8369 34.5987 23.0705 37.7917 23.0705C44.4334 23.0705 45.6544 27.4794 45.6544 33.2059V44.9082H45.6473Z" fill="#414141"/>
</svg>
