<svg width="28" height="32" viewBox="0 0 28 32" fill="none" xmlns="http://www.w3.org/2000/svg">
<g clip-path="url(#clip0)">
<path d="M6.4884 27.7077H0.85869V9.43266H6.4884V27.7077ZM3.67052 6.93978C1.87032 6.93978 0.410156 5.43671 0.410156 3.62204C0.410156 2.75039 0.753657 1.91443 1.36509 1.29808C1.97653 0.681728 2.80581 0.335464 3.67052 0.335464C4.53522 0.335464 5.3645 0.681728 5.97594 1.29808C6.58737 1.91443 6.93087 2.75039 6.93087 3.62204C6.93087 5.43671 5.47011 6.93978 3.67052 6.93978ZM27.5586 27.7077H21.941V18.8115C21.941 16.6914 21.8986 13.9724 19.014 13.9724C16.087 13.9724 15.6385 16.2759 15.6385 18.6588V27.7077H10.0149V9.43266H15.4142V11.9255H15.493C16.2446 10.4897 18.0806 8.97441 20.8197 8.97441C26.5173 8.97441 27.5647 12.7565 27.5647 17.669V27.7077H27.5586Z" fill="#414141"/>
</g>
<defs>
<clipPath id="clip0">
<rect width="27.1545" height="31.2833" fill="white" transform="translate(0.410156 0.334747)"/>
</clipPath>
</defs>
</svg>
