<svg width="35" height="26" viewBox="0 0 35 26" fill="none" xmlns="http://www.w3.org/2000/svg">
<g clip-path="url(#clip0)">
<path d="M8.25384 25.8422V12.9838L4.25798 9.3356L0.674805 7.3111V23.573C0.674805 24.8286 1.69412 25.8422 2.94857 25.8422H8.25384V25.8422Z" fill="#727272"/>
<path d="M26.4434 25.8422H31.7486C33.0069 25.8422 34.0224 24.8248 34.0224 23.573V7.31123L29.9639 9.63006L26.4434 12.9838V25.8422V25.8422Z" fill="#7A7A7A"/>
<path d="M8.25368 12.9838L7.70996 7.95967L8.25368 3.15108L17.3485 9.95843L26.4433 3.15108L27.0516 7.70006L26.4433 12.9838L17.3485 19.7912L8.25368 12.9838Z" fill="#676767"/>
<path d="M26.4434 3.15109V12.9838L34.0224 7.31111V4.2856C34.0224 1.47954 30.8127 -0.12012 28.5656 1.56274L26.4434 3.15109Z" fill="#969696"/>
<path d="M0.674805 7.31097L4.16054 9.92008L8.25384 12.9837V3.15095L6.13157 1.5626C3.88061 -0.120389 0.674805 1.4794 0.674805 4.28533V7.31084V7.31097Z" fill="#333333"/>
</g>
<defs>
<clipPath id="clip0">
<rect width="33.3476" height="25.0901" fill="white" transform="translate(0.674805 0.875549)"/>
</clipPath>
</defs>
</svg>
