<svg width="375" height="61" viewBox="0 0 375 61" fill="none" xmlns="http://www.w3.org/2000/svg">
<g clip-path="url(#clip0)">
<path d="M177.645 6.94426C178.933 6.86375 180.442 6.80336 182.173 6.7631C183.904 6.68259 185.495 6.64233 186.944 6.64233C190.527 6.64233 193.405 7.52798 195.579 9.29928C197.753 11.0303 198.84 13.6068 198.84 17.0286C198.84 18.6389 198.498 20.1082 197.813 21.4367C197.169 22.7249 196.143 23.832 194.734 24.7579C197.149 25.563 199.041 26.8311 200.41 28.5622C201.778 30.2932 202.463 32.4872 202.463 35.1441C202.463 36.8349 202.161 38.4251 201.557 39.9146C200.953 41.4041 200.027 42.7124 198.779 43.8396C197.531 44.9668 195.982 45.8726 194.13 46.5569C192.278 47.2011 190.104 47.5231 187.608 47.5231C185.636 47.5231 183.804 47.4426 182.113 47.2816C180.422 47.1608 178.933 46.9998 177.645 46.7985V6.94426ZM187.427 43.5377C190.688 43.5377 193.164 42.7929 194.854 41.3034C196.585 39.7737 197.451 37.5596 197.451 34.6611C197.451 32.3664 196.666 30.5549 195.096 29.2264C193.566 27.8577 190.97 27.1733 187.306 27.1733C186.421 27.1733 185.535 27.1934 184.649 27.2337C183.804 27.2337 182.979 27.2538 182.173 27.2941V43.3565C183.743 43.4773 185.495 43.5377 187.427 43.5377ZM185.857 23.7313C188.393 23.7313 190.346 23.0872 191.714 21.799C193.123 20.5108 193.828 18.7596 193.828 16.5455C193.828 14.7742 193.345 13.3451 192.379 12.2582C191.412 11.1712 189.722 10.6278 187.306 10.6278C186.421 10.6278 185.535 10.6479 184.649 10.6881C183.804 10.6881 182.979 10.7083 182.173 10.7485V23.671C182.737 23.7112 183.321 23.7313 183.925 23.7313C184.569 23.7313 185.213 23.7313 185.857 23.7313Z" fill="#4D4D4D"/>
<path d="M212.523 6.64233V46.7985H208.416V6.64233H212.523Z" fill="#4D4D4D"/>
<path d="M289.691 27.8979V38.7673C288.523 40.3775 287.175 41.7664 285.645 42.9338C284.92 43.4974 283.994 44.0812 282.867 44.685C279.848 46.255 276.708 47.04 273.447 47.04C269.784 47.04 266.342 46.094 263.121 44.2019C259.901 42.3099 257.405 39.6932 255.633 36.3519C254.748 34.5806 254.144 32.93 253.822 31.4003C253.46 29.8705 253.278 28.3407 253.278 26.811C253.278 23.7515 253.943 20.8932 255.271 18.2363C256.157 16.3845 257.304 14.6937 258.713 13.1639C260.162 11.6342 261.793 10.346 263.604 9.29928C266.624 7.6085 269.925 6.7631 273.507 6.7631C274.433 6.7631 275.359 6.82349 276.285 6.94426C278.66 7.26632 280.915 8.03119 283.048 9.2389C285.222 10.4063 287.114 11.9361 288.725 13.8282L285.585 16.4851C283.773 14.3918 281.659 12.9023 279.244 12.0166C277.392 11.292 275.44 10.9297 273.387 10.9297C270.649 10.9297 268.153 11.5335 265.899 12.7412C264.45 13.5464 263.141 14.5528 261.974 15.7605C260.806 16.9682 259.86 18.3168 259.136 19.8063C258.009 22.0204 257.445 24.3956 257.445 26.9318C257.445 28.3005 257.626 29.6894 257.988 31.0983C258.914 34.4799 260.806 37.2979 263.665 39.5523C265.074 40.5989 266.603 41.4242 268.254 42.0281C269.945 42.5917 271.656 42.8735 273.387 42.8735C275.722 42.8735 277.956 42.3904 280.089 41.4242C282.223 40.4178 284.055 39.0289 285.585 37.2576L285.645 32.0041H279.788V27.8979H289.691Z" fill="#4D4D4D"/>
<path d="M315.255 47.1004C311.592 47.1004 308.231 46.1946 305.171 44.3831C302.111 42.5715 299.676 40.136 297.864 37.0765C296.053 34.017 295.147 30.6555 295.147 26.9921C295.147 23.3288 296.053 19.9673 297.864 16.9078C299.676 13.808 302.111 11.3524 305.171 9.54082C308.271 7.72927 311.632 6.82349 315.255 6.82349C318.878 6.82349 322.24 7.72927 325.34 9.54082C328.439 11.3524 330.895 13.808 332.707 16.9078C334.518 20.0076 335.424 23.369 335.424 26.9921C335.424 30.6153 334.518 33.9767 332.707 37.0765C330.895 40.136 328.439 42.5715 325.34 44.3831C322.28 46.1946 318.919 47.1004 315.255 47.1004ZM315.255 42.9942C318.154 42.9942 320.831 42.2897 323.287 40.8807C325.742 39.4315 327.675 37.479 329.084 35.0234C330.533 32.5677 331.257 29.8906 331.257 26.9921C331.257 24.0937 330.533 21.4166 329.084 18.9609C327.675 16.5052 325.742 14.5729 323.287 13.1639C320.831 11.7147 318.154 10.9901 315.255 10.9901C312.357 10.9901 309.68 11.7147 307.224 13.1639C304.768 14.5729 302.816 16.5052 301.367 18.9609C299.958 21.4166 299.253 24.0937 299.253 26.9921C299.253 29.8906 299.958 32.5677 301.367 35.0234C302.816 37.479 304.768 39.4315 307.224 40.8807C309.68 42.2897 312.357 42.9942 315.255 42.9942Z" fill="#4D4D4D"/>
<path d="M247.147 6.94434V47.7043L242.76 41.9777L224.617 17.8586V47.7043H220.88V6.94434L224.779 12.1095L243.465 36.9024V6.94434H247.147Z" fill="#4D4D4D"/>
<path d="M23.0237 48.3019C19.3603 48.3019 15.9989 47.3961 12.9394 45.5846C9.87984 43.773 7.4443 41.3375 5.63274 38.278C3.82119 35.2185 2.91541 31.857 2.91541 28.1937C2.91541 24.5303 3.82119 21.1688 5.63274 18.1093C7.4443 15.0096 9.87984 12.5539 12.9394 10.7423C16.0391 8.93077 19.4006 8.02499 23.0237 8.02499C26.6468 8.02499 30.0082 8.93077 33.108 10.7423C36.2078 12.5539 38.6634 15.0096 40.475 18.1093C42.2866 21.2091 43.1923 24.5705 43.1923 28.1937C43.1923 31.8168 42.2866 35.1782 40.475 38.278C38.6634 41.3375 36.2078 43.773 33.108 45.5846C30.0485 47.3961 26.687 48.3019 23.0237 48.3019ZM23.0237 44.1957C25.9222 44.1957 28.5992 43.4912 31.0549 42.0823C33.5106 40.633 35.4429 38.6806 36.8519 36.2249C38.3011 33.7692 39.0258 31.0921 39.0258 28.1937C39.0258 25.2952 38.3011 22.6181 36.8519 20.1624C35.4429 17.7068 33.5106 15.7744 31.0549 14.3654C28.5992 12.9162 25.9222 12.1916 23.0237 12.1916C20.1252 12.1916 17.4481 12.9162 14.9924 14.3654C12.5368 15.7744 10.5843 17.7068 9.13508 20.1624C7.7261 22.6181 7.0216 25.2952 7.0216 28.1937C7.0216 31.0921 7.7261 33.7692 9.13508 36.2249C10.5843 38.6806 12.5368 40.633 14.9924 42.0823C17.4481 43.4912 20.1252 44.1957 23.0237 44.1957ZM48.6313 60.862V18.5924H52.7374V23.6044C54.1464 21.6318 55.797 20.1624 57.689 19.1963C59.5811 18.1898 61.6543 17.6866 63.9087 17.6866C66.6462 17.6866 69.1823 18.371 71.5172 19.7397C73.8521 21.1085 75.704 22.9603 77.0727 25.2952C78.4414 27.6301 79.1258 30.1662 79.1258 32.9037C79.1258 35.6412 78.4414 38.1773 77.0727 40.5122C75.704 42.8471 73.8521 44.6989 71.5172 46.0677C69.1823 47.4364 66.6462 48.1208 63.9087 48.1208C61.0505 48.1208 58.6955 47.537 56.8436 46.3696C54.9918 45.1619 53.6231 43.8737 52.7374 42.5049V60.862H48.6313ZM63.9087 21.8532C61.8959 21.8532 60.0441 22.3564 58.3533 23.3628C56.6625 24.329 55.3139 25.6575 54.3075 27.3483C53.301 29.039 52.7978 30.8909 52.7978 32.9037C52.7978 34.9165 53.301 36.7684 54.3075 38.4591C55.3139 40.1499 56.6625 41.4985 58.3533 42.5049C60.0441 43.5114 61.8959 44.0146 63.9087 44.0146C65.9215 44.0146 67.7734 43.5114 69.4641 42.5049C71.1549 41.4985 72.4834 40.1499 73.4496 38.4591C74.456 36.7684 74.9592 34.9165 74.9592 32.9037C74.9592 30.8909 74.456 29.039 73.4496 27.3483C72.4834 25.6575 71.1549 24.329 69.4641 23.3628C67.7734 22.3564 65.9215 21.8532 63.9087 21.8532ZM98.1306 21.9136H93.1186V48H88.9521V21.9136H83.9401V17.8074H88.9521V7.84384H93.1186V17.8074H98.1306V21.9136ZM106.309 9.41385C107.033 9.41385 107.657 9.67552 108.18 10.1989C108.704 10.7222 108.966 11.3462 108.966 12.0708C108.966 12.8357 108.704 13.4798 108.18 14.0031C107.657 14.5265 107.033 14.7881 106.309 14.7881C105.544 14.7881 104.9 14.5265 104.376 14.0031C103.853 13.4798 103.591 12.8357 103.591 12.0708C103.591 11.3462 103.853 10.7222 104.376 10.1989C104.9 9.67552 105.544 9.41385 106.309 9.41385ZM108.362 17.8074V48H104.195V17.8074H108.362ZM127.877 48.3019C125.139 48.3019 122.583 47.6176 120.208 46.2488C117.873 44.8801 116.021 43.0283 114.653 40.6934C113.284 38.3182 112.599 35.7619 112.599 33.0245C112.599 30.2468 113.284 27.6904 114.653 25.3555C116.021 22.9804 117.873 21.1085 120.208 19.7397C122.583 18.3307 125.139 17.6262 127.877 17.6262C130.655 17.6262 133.211 18.3307 135.546 19.7397C137.921 21.1085 139.793 22.9804 141.162 25.3555C142.571 27.6904 143.275 30.2468 143.275 33.0245C143.275 35.7619 142.571 38.3182 141.162 40.6934C139.793 43.0283 137.921 44.8801 135.546 46.2488C133.211 47.6176 130.655 48.3019 127.877 48.3019ZM127.877 44.2561C129.93 44.2561 131.802 43.7529 133.493 42.7465C135.224 41.7401 136.593 40.3713 137.599 38.6403C138.605 36.9093 139.109 35.0373 139.109 33.0245C139.109 30.9714 138.605 29.0793 137.599 27.3483C136.593 25.6172 135.224 24.2485 133.493 23.2421C131.802 22.2356 129.93 21.7324 127.877 21.7324C125.864 21.7324 123.992 22.2356 122.261 23.2421C120.57 24.2485 119.222 25.6172 118.215 27.3483C117.209 29.0793 116.706 30.9714 116.706 33.0245C116.706 35.0373 117.209 36.9093 118.215 38.6403C119.222 40.3713 120.57 41.7401 122.261 42.7465C123.992 43.7529 125.864 44.2561 127.877 44.2561ZM160.659 17.8074C162.833 17.8074 164.826 18.3509 166.638 19.4378C168.489 20.4845 169.959 21.9337 171.046 23.7855C172.133 25.5971 172.676 27.5898 172.676 29.7637V48H168.51V29.7637C168.51 28.3547 168.147 27.0665 167.423 25.899C166.738 24.6913 165.792 23.7453 164.585 23.0609C163.377 22.3363 162.068 21.974 160.659 21.974C159.25 21.974 157.942 22.3363 156.734 23.0609C155.527 23.7453 154.561 24.6913 153.836 25.899C153.152 27.0665 152.809 28.3547 152.809 29.7637V48H148.703V18.5924H152.809V21.2494C153.816 20.1222 154.983 19.2768 156.312 18.7132C157.68 18.1093 159.13 17.8074 160.659 17.8074Z" fill="#919191"/>
<rect x="52.6465" y="51.3271" width="282.905" height="5.43467" fill="#5C5C5C"/>
<rect x="331.626" y="52.9363" width="40.5326" height="5.43467" transform="rotate(-44.6403 331.626 52.9363)" fill="#5C5C5C"/>
<path d="M356.644 21.6592L369.38 20.2113L366.992 32.6503L356.644 21.6592Z" fill="#5C5C5C"/>
</g>
<defs>
<clipPath id="clip0">
<rect width="374" height="60.2681" fill="white" transform="translate(0.5)"/>
</clipPath>
</defs>
</svg>
