<svg width="264" height="54" viewBox="0 0 264 54" fill="none" xmlns="http://www.w3.org/2000/svg">
<g clip-path="url(#clip0_92_2620)">
<path d="M124.788 16.33C125.698 16.2731 126.765 16.2305 127.987 16.202C129.21 16.1451 130.334 16.1167 131.357 16.1167C133.889 16.1167 135.922 16.7424 137.458 17.9937C138.993 19.2165 139.761 21.0366 139.761 23.4539C139.761 24.5915 139.519 25.6295 139.036 26.568C138.581 27.4781 137.856 28.2601 136.86 28.9142C138.567 29.483 139.903 30.3788 140.87 31.6017C141.837 32.8246 142.321 34.3745 142.321 36.2515C142.321 37.4459 142.107 38.5693 141.681 39.6215C141.254 40.6737 140.6 41.598 139.719 42.3943C138.837 43.1906 137.742 43.8305 136.434 44.3139C135.126 44.7689 133.59 44.9965 131.827 44.9965C130.433 44.9965 129.139 44.9396 127.945 44.8258C126.75 44.7405 125.698 44.6267 124.788 44.4846V16.33ZM131.699 42.181C134.002 42.181 135.751 41.6549 136.946 40.6026C138.169 39.522 138.78 37.9578 138.78 35.9102C138.78 34.2892 138.225 33.0094 137.116 32.071C136.036 31.104 134.201 30.6206 131.613 30.6206C130.988 30.6206 130.362 30.6348 129.736 30.6632C129.139 30.6632 128.556 30.6774 127.987 30.7059V42.053C129.097 42.1383 130.334 42.181 131.699 42.181ZM130.59 28.189C132.381 28.189 133.761 27.734 134.728 26.824C135.723 25.9139 136.221 24.6768 136.221 23.1127C136.221 21.8614 135.879 20.8518 135.197 20.0839C134.514 19.3161 133.32 18.9322 131.613 18.9322C130.988 18.9322 130.362 18.9464 129.736 18.9748C129.139 18.9748 128.556 18.989 127.987 19.0175V28.1464C128.386 28.1748 128.798 28.189 129.225 28.189C129.68 28.189 130.135 28.189 130.59 28.189Z" fill="#4D4D4D"/>
<path d="M149.427 16.1167V44.4846H146.527V16.1167H149.427Z" fill="#4D4D4D"/>
<path d="M203.942 31.1325V38.811C203.117 39.9485 202.164 40.9297 201.084 41.7544C200.572 42.1526 199.918 42.5649 199.121 42.9915C196.988 44.1006 194.77 44.6552 192.467 44.6552C189.879 44.6552 187.447 43.9869 185.172 42.6502C182.897 41.3136 181.134 39.4651 179.882 37.1046C179.257 35.8533 178.83 34.6873 178.603 33.6067C178.347 32.526 178.219 31.4453 178.219 30.3646C178.219 28.2033 178.688 26.1841 179.626 24.3071C180.252 22.9989 181.063 21.8045 182.058 20.7238C183.082 19.6431 184.234 18.7331 185.513 17.9937C187.646 16.7992 189.978 16.202 192.509 16.202C193.163 16.202 193.818 16.2447 194.472 16.33C196.15 16.5575 197.742 17.0978 199.249 17.951C200.785 18.7757 202.122 19.8564 203.259 21.1931L201.041 23.07C199.761 21.5912 198.268 20.539 196.562 19.9133C195.254 19.4014 193.874 19.1454 192.424 19.1454C190.49 19.1454 188.727 19.572 187.134 20.4252C186.111 20.994 185.186 21.705 184.362 22.5581C183.537 23.4113 182.869 24.364 182.357 25.4162C181.56 26.9804 181.162 28.6583 181.162 30.4499C181.162 31.4169 181.29 32.398 181.546 33.3934C182.2 35.7822 183.537 37.773 185.556 39.3655C186.551 40.105 187.632 40.688 188.798 41.1145C189.992 41.5127 191.201 41.7118 192.424 41.7118C194.073 41.7118 195.652 41.3705 197.159 40.688C198.666 39.977 199.96 38.9958 201.041 37.7445L201.084 34.0332H196.946V31.1325H203.942Z" fill="#4D4D4D"/>
<path d="M222.002 44.6978C219.414 44.6978 217.039 44.058 214.878 42.7782C212.716 41.4985 210.996 39.7779 209.716 37.6165C208.436 35.4552 207.796 33.0805 207.796 30.4926C207.796 27.9046 208.436 25.53 209.716 23.3686C210.996 21.1788 212.716 19.4441 214.878 18.1643C217.067 16.8845 219.442 16.2447 222.002 16.2447C224.561 16.2447 226.936 16.8845 229.126 18.1643C231.315 19.4441 233.05 21.1788 234.33 23.3686C235.61 25.5584 236.25 27.9331 236.25 30.4926C236.25 33.0521 235.61 35.4267 234.33 37.6165C233.05 39.7779 231.315 41.4985 229.126 42.7782C226.964 44.058 224.59 44.6978 222.002 44.6978ZM222.002 41.7971C224.049 41.7971 225.94 41.2994 227.675 40.304C229.41 39.2802 230.775 37.9009 231.77 36.1662C232.794 34.4314 233.306 32.5402 233.306 30.4926C233.306 28.445 232.794 26.5538 231.77 24.819C230.775 23.0842 229.41 21.7192 227.675 20.7238C225.94 19.7 224.049 19.1881 222.002 19.1881C219.954 19.1881 218.063 19.7 216.328 20.7238C214.593 21.7192 213.214 23.0842 212.19 24.819C211.195 26.5538 210.697 28.445 210.697 30.4926C210.697 32.5402 211.195 34.4314 212.19 36.1662C213.214 37.9009 214.593 39.2802 216.328 40.304C218.063 41.2994 219.954 41.7971 222.002 41.7971Z" fill="#4D4D4D"/>
<path d="M173.887 16.3301V45.1245L170.788 41.079L157.971 24.0403V45.1245H155.331V16.3301L158.086 19.979L171.286 37.4936V16.3301H173.887Z" fill="#4D4D4D"/>
<path d="M15.5581 45.6376C12.9701 45.6376 10.5955 44.9977 8.43412 43.718C6.27276 42.4382 4.5522 40.7177 3.27245 38.5563C1.9927 36.3949 1.35282 34.0203 1.35282 31.4324C1.35282 28.8444 1.9927 26.4698 3.27245 24.3084C4.5522 22.1186 6.27276 20.3838 8.43412 19.1041C10.6239 17.8243 12.9986 17.1844 15.5581 17.1844C18.1176 17.1844 20.4922 17.8243 22.682 19.1041C24.8718 20.3838 26.6066 22.1186 27.8864 24.3084C29.1661 26.4982 29.806 28.8728 29.806 31.4324C29.806 33.9919 29.1661 36.3665 27.8864 38.5563C26.6066 40.7177 24.8718 42.4382 22.682 43.718C20.5207 44.9977 18.146 45.6376 15.5581 45.6376ZM15.5581 42.7368C17.6057 42.7368 19.4969 42.2392 21.2316 41.2438C22.9664 40.22 24.3315 38.8407 25.3269 37.1059C26.3507 35.3711 26.8626 33.48 26.8626 31.4324C26.8626 29.3847 26.3507 27.4936 25.3269 25.7588C24.3315 24.024 22.9664 22.6589 21.2316 21.6636C19.4969 20.6398 17.6057 20.1279 15.5581 20.1279C13.5105 20.1279 11.6193 20.6398 9.88451 21.6636C8.14973 22.6589 6.77044 24.024 5.74664 25.7588C4.75128 27.4936 4.25359 29.3847 4.25359 31.4324C4.25359 33.48 4.75128 35.3711 5.74664 37.1059C6.77044 38.8407 8.14973 40.22 9.88451 41.2438C11.6193 42.2392 13.5105 42.7368 15.5581 42.7368ZM33.6482 54.5106V24.6497H36.549V28.1903C37.5444 26.7968 38.7104 25.7588 40.047 25.0762C41.3836 24.3653 42.8482 24.0098 44.4408 24.0098C46.3747 24.0098 48.1663 24.4932 49.8158 25.4602C51.4653 26.4271 52.7734 27.7353 53.7404 29.3847C54.7073 31.0342 55.1908 32.8259 55.1908 34.7597C55.1908 36.6936 54.7073 38.4852 53.7404 40.1347C52.7734 41.7841 51.4653 43.0923 49.8158 44.0592C48.1663 45.0262 46.3747 45.5096 44.4408 45.5096C42.4217 45.5096 40.758 45.0973 39.4498 44.2725C38.1416 43.4194 37.1747 42.5093 36.549 41.5424V54.5106H33.6482ZM44.4408 26.9532C43.0189 26.9532 41.7107 27.3087 40.5163 28.0197C39.3218 28.7022 38.3691 29.6407 37.6581 30.8351C36.9472 32.0296 36.5917 33.3378 36.5917 34.7597C36.5917 36.1817 36.9472 37.4898 37.6581 38.6843C38.3691 39.8787 39.3218 40.8314 40.5163 41.5424C41.7107 42.2534 43.0189 42.6089 44.4408 42.6089C45.8628 42.6089 47.171 42.2534 48.3654 41.5424C49.5598 40.8314 50.4983 39.8787 51.1809 38.6843C51.8918 37.4898 52.2473 36.1817 52.2473 34.7597C52.2473 33.3378 51.8918 32.0296 51.1809 30.8351C50.4983 29.6407 49.5598 28.7022 48.3654 28.0197C47.171 27.3087 45.8628 26.9532 44.4408 26.9532ZM68.6165 26.9959H65.0758V45.4243H62.1324V26.9959H58.5918V24.0951H62.1324V17.0565H65.0758V24.0951H68.6165V26.9959ZM74.3937 18.1656C74.9056 18.1656 75.3464 18.3504 75.7161 18.7201C76.0858 19.0898 76.2707 19.5307 76.2707 20.0426C76.2707 20.5829 76.0858 21.0379 75.7161 21.4076C75.3464 21.7773 74.9056 21.9622 74.3937 21.9622C73.8534 21.9622 73.3983 21.7773 73.0286 21.4076C72.6589 21.0379 72.4741 20.5829 72.4741 20.0426C72.4741 19.5307 72.6589 19.0898 73.0286 18.7201C73.3983 18.3504 73.8534 18.1656 74.3937 18.1656ZM75.8441 24.0951V45.4243H72.9007V24.0951H75.8441ZM89.6304 45.6376C87.6966 45.6376 85.8907 45.1541 84.2128 44.1872C82.5634 43.2203 81.2552 41.9121 80.2882 40.2626C79.3213 38.5847 78.8379 36.7789 78.8379 34.845C78.8379 32.8827 79.3213 31.0769 80.2882 29.4274C81.2552 27.7495 82.5634 26.4271 84.2128 25.4602C85.8907 24.4648 87.6966 23.9671 89.6304 23.9671C91.5927 23.9671 93.3986 24.4648 95.0481 25.4602C96.726 26.4271 98.0484 27.7495 99.0153 29.4274C100.011 31.0769 100.508 32.8827 100.508 34.845C100.508 36.7789 100.011 38.5847 99.0153 40.2626C98.0484 41.9121 96.726 43.2203 95.0481 44.1872C93.3986 45.1541 91.5927 45.6376 89.6304 45.6376ZM89.6304 42.7795C91.0808 42.7795 92.4032 42.424 93.5977 41.713C94.8205 41.0021 95.7875 40.0351 96.4984 38.8123C97.2094 37.5894 97.5649 36.267 97.5649 34.845C97.5649 33.3946 97.2094 32.058 96.4984 30.8351C95.7875 29.6123 94.8205 28.6453 93.5977 27.9344C92.4032 27.2234 91.0808 26.8679 89.6304 26.8679C88.2085 26.8679 86.8861 27.2234 85.6632 27.9344C84.4688 28.6453 83.5161 29.6123 82.8051 30.8351C82.0941 32.058 81.7386 33.3946 81.7386 34.845C81.7386 36.267 82.0941 37.5894 82.8051 38.8123C83.5161 40.0351 84.4688 41.0021 85.6632 41.713C86.8861 42.424 88.2085 42.7795 89.6304 42.7795ZM112.789 24.0951C114.325 24.0951 115.733 24.479 117.012 25.2469C118.321 25.9863 119.359 27.0101 120.127 28.3183C120.894 29.598 121.278 31.0058 121.278 32.5415V45.4243H118.335V32.5415C118.335 31.5461 118.079 30.6361 117.567 29.8113C117.084 28.9582 116.415 28.2898 115.562 27.8064C114.709 27.2945 113.785 27.0385 112.789 27.0385C111.794 27.0385 110.87 27.2945 110.016 27.8064C109.163 28.2898 108.481 28.9582 107.969 29.8113C107.485 30.6361 107.244 31.5461 107.244 32.5415V45.4243H104.343V24.6497H107.244V26.5266C107.955 25.7303 108.779 25.1331 109.718 24.735C110.685 24.3084 111.709 24.0951 112.789 24.0951Z" fill="#919191"/>
<rect x="36.4834" y="47.6836" width="199.855" height="3.83926" fill="#5C5C5C"/>
<rect x="233.565" y="48.8203" width="28.6338" height="3.83926" transform="rotate(-44.6403 233.565 48.8203)" fill="#5C5C5C"/>
<path d="M251.238 26.7251L260.236 25.7022L258.549 34.4897L251.238 26.7251Z" fill="#5C5C5C"/>
</g>
<defs>
<clipPath id="clip0_92_2620">
<rect width="264" height="54" fill="white"/>
</clipPath>
</defs>
</svg>
