<svg width="567" height="287" viewBox="0 0 567 287" fill="none" xmlns="http://www.w3.org/2000/svg">
<g clip-path="url(#clip0)">
<rect width="567" height="285.567" transform="translate(0 0.716309)" fill="white"/>
<rect width="567" height="285.567" transform="translate(0 0.716309)" fill="url(#paint0_linear)"/>
<g filter="url(#filter0_f)">
<circle cx="36.5574" cy="263.779" r="64.3296" transform="rotate(105 36.5574 263.779)" fill="url(#paint1_linear)"/>
</g>
<g filter="url(#filter1_f)">
<circle cx="547.002" cy="87.0306" r="46.1219" transform="rotate(105 547.002 87.0306)" fill="url(#paint2_linear)"/>
</g>
<g filter="url(#filter2_f)">
<circle cx="374.463" cy="225.456" r="26.2874" transform="rotate(90 374.463 225.456)" fill="url(#paint3_linear)"/>
</g>
<path d="M38.7478 37.6647C38.7478 42.9544 38.171 47.5407 37.0174 51.4236C35.892 55.2783 34.3445 58.4718 32.3749 61.0041C30.4053 63.5364 28.07 65.4216 25.3688 66.6596C22.6959 67.8976 19.8259 68.5166 16.759 68.5166C13.664 68.5166 10.78 67.8976 8.10696 66.6596C5.46211 65.4216 3.1549 63.5364 1.18533 61.0041C-0.784239 58.4718 -2.33176 55.2783 -3.45723 51.4236C-4.5827 47.5407 -5.14543 42.9544 -5.14543 37.6647C-5.14543 32.375 -4.5827 27.7887 -3.45723 23.9059C-2.33176 20.023 -0.784239 16.8154 1.18533 14.2831C3.1549 11.7227 5.46211 9.82343 8.10696 8.58541C10.78 7.3474 13.664 6.72839 16.759 6.72839C19.8259 6.72839 22.6959 7.3474 25.3688 8.58541C28.07 9.82343 30.4053 11.7227 32.3749 14.2831C34.3445 16.8154 35.892 20.023 37.0174 23.9059C38.171 27.7887 38.7478 32.375 38.7478 37.6647ZM30.9399 37.6647C30.9399 33.0503 30.546 29.1815 29.7582 26.0583C28.9985 22.907 27.9574 20.3747 26.635 18.4614C25.3407 16.5481 23.8354 15.1835 22.119 14.3675C20.4027 13.5234 18.616 13.1014 16.759 13.1014C14.902 13.1014 13.1153 13.5234 11.399 14.3675C9.68262 15.1835 8.17731 16.5481 6.88302 18.4614C5.58873 20.3747 4.54767 22.907 3.75984 26.0583C3.00015 29.1815 2.6203 33.0503 2.6203 37.6647C2.6203 42.2791 3.00015 46.1479 3.75984 49.2711C4.54767 52.3943 5.58873 54.9125 6.88302 56.8258C8.17731 58.7391 9.68262 60.1178 11.399 60.9619C13.1153 61.7779 14.902 62.1859 16.759 62.1859C18.616 62.1859 20.4027 61.7779 22.119 60.9619C23.8354 60.1178 25.3407 58.7391 26.635 56.8258C27.9574 54.9125 28.9985 52.3943 29.7582 49.2711C30.546 46.1479 30.9399 42.2791 30.9399 37.6647ZM84.2515 62.1437V67.8835H51.838V62.1437H64.795V20.9093C64.795 19.6713 64.8372 18.4192 64.9216 17.153L54.1593 26.396C53.7935 26.7055 53.4277 26.9024 53.062 26.9868C52.6962 27.0431 52.3585 27.0431 52.049 26.9868C51.7395 26.9306 51.4441 26.818 51.1627 26.6492C50.9095 26.4804 50.7125 26.2975 50.5719 26.1005L48.2084 22.8507L66.2299 7.27705H72.3497V62.1437H84.2515Z" fill="#FFF5E8"/>
</g>
<defs>
<filter id="filter0_f" x="-36.9428" y="190.278" width="147" height="147" filterUnits="userSpaceOnUse" color-interpolation-filters="sRGB">
<feFlood flood-opacity="0" result="BackgroundImageFix"/>
<feBlend mode="normal" in="SourceGraphic" in2="BackgroundImageFix" result="shape"/>
<feGaussianBlur stdDeviation="4.57734" result="effect1_foregroundBlur"/>
</filter>
<filter id="filter1_f" x="491.713" y="31.7425" width="110.576" height="110.576" filterUnits="userSpaceOnUse" color-interpolation-filters="sRGB">
<feFlood flood-opacity="0" result="BackgroundImageFix"/>
<feBlend mode="normal" in="SourceGraphic" in2="BackgroundImageFix" result="shape"/>
<feGaussianBlur stdDeviation="4.57734" result="effect1_foregroundBlur"/>
</filter>
<filter id="filter2_f" x="339.02" y="190.014" width="70.8842" height="70.8842" filterUnits="userSpaceOnUse" color-interpolation-filters="sRGB">
<feFlood flood-opacity="0" result="BackgroundImageFix"/>
<feBlend mode="normal" in="SourceGraphic" in2="BackgroundImageFix" result="shape"/>
<feGaussianBlur stdDeviation="4.57734" result="effect1_foregroundBlur"/>
</filter>
<linearGradient id="paint0_linear" x1="283.5" y1="0" x2="283.5" y2="285.567" gradientUnits="userSpaceOnUse">
<stop stop-color="white" stop-opacity="0"/>
<stop offset="1" stop-color="#FFEEDA"/>
</linearGradient>
<linearGradient id="paint1_linear" x1="-3.04805" y1="233.43" x2="126.549" y2="266.825" gradientUnits="userSpaceOnUse">
<stop stop-color="#FFF0DE"/>
<stop offset="1" stop-color="#F2921D"/>
</linearGradient>
<linearGradient id="paint2_linear" x1="518.606" y1="65.2718" x2="611.522" y2="89.2149" gradientUnits="userSpaceOnUse">
<stop stop-color="#FFF0DE"/>
<stop offset="1" stop-color="#F2921D"/>
</linearGradient>
<linearGradient id="paint3_linear" x1="358.278" y1="213.054" x2="411.236" y2="226.701" gradientUnits="userSpaceOnUse">
<stop stop-color="#FFF0DE"/>
<stop offset="1" stop-color="#F2921D"/>
</linearGradient>
<clipPath id="clip0">
<rect width="567" height="285.567" fill="white" transform="translate(0 0.716309)"/>
</clipPath>
</defs>
</svg>
