<svg width="1920" height="967" viewBox="0 0 1920 967" fill="none" xmlns="http://www.w3.org/2000/svg">
<g clip-path="url(#clip0_103_64)">
<rect width="1920" height="967" fill="white"/>
<rect width="1920" height="967" fill="url(#paint0_linear_103_64)"/>
<g filter="url(#filter0_f_103_64)">
<circle cx="123.793" cy="890.793" r="217.836" transform="rotate(105 123.793 890.793)" fill="url(#paint1_linear_103_64)"/>
</g>
<g filter="url(#filter1_f_103_64)">
<circle cx="1852.28" cy="292.281" r="156.18" transform="rotate(105 1852.28 292.281)" fill="url(#paint2_linear_103_64)"/>
</g>
<g filter="url(#filter2_f_103_64)">
<circle cx="1268.02" cy="761.021" r="89.0156" transform="rotate(90 1268.02 761.021)" fill="url(#paint3_linear_103_64)"/>
</g>
<path d="M131.208 124.672C131.208 142.584 129.255 158.114 125.349 171.263C121.538 184.316 116.297 195.13 109.628 203.705C102.958 212.28 95.0504 218.663 85.9037 222.855C76.8524 227.048 67.134 229.144 56.7488 229.144C46.2682 229.144 36.5022 227.048 27.4508 222.855C18.4947 218.663 10.6819 212.28 4.0125 203.705C-2.65695 195.13 -7.89722 184.316 -11.7083 171.263C-15.5194 158.114 -17.425 142.584 -17.425 124.672C-17.425 106.759 -15.5194 91.2292 -11.7083 78.0808C-7.89722 64.9325 -2.65695 54.0708 4.0125 45.4958C10.6819 36.8256 18.4947 30.3943 27.4508 26.2021C36.5022 22.0099 46.2682 19.9137 56.7488 19.9137C67.134 19.9137 76.8524 22.0099 85.9037 26.2021C95.0504 30.3943 102.958 36.8256 109.628 45.4958C116.297 54.0708 121.538 64.9325 125.349 78.0808C129.255 91.2292 131.208 106.759 131.208 124.672ZM104.769 124.672C104.769 109.046 103.435 95.9454 100.767 85.3696C98.1946 74.6985 94.6693 66.1235 90.1912 59.6446C85.8085 53.1657 80.7111 48.5447 74.8992 45.7817C69.0872 42.9233 63.0371 41.4942 56.7488 41.4942C50.4604 41.4942 44.4103 42.9233 38.5983 45.7817C32.7864 48.5447 27.689 53.1657 23.3063 59.6446C18.9235 66.1235 15.3982 74.6985 12.7304 85.3696C10.1579 95.9454 8.87167 109.046 8.87167 124.672C8.87167 140.297 10.1579 153.398 12.7304 163.974C15.3982 174.55 18.9235 183.077 23.3063 189.556C27.689 196.035 32.7864 200.703 38.5983 203.562C44.4103 206.325 50.4604 207.706 56.7488 207.706C63.0371 207.706 69.0872 206.325 74.8992 203.562C80.7111 200.703 85.8085 196.035 90.1912 189.556C94.6693 183.077 98.1946 174.55 100.767 163.974C103.435 153.398 104.769 140.297 104.769 124.672ZM158.385 77.6521C159.719 68.3149 162.291 60.0733 166.102 52.9275C169.913 45.6864 174.725 39.6363 180.537 34.7771C186.444 29.9179 193.161 26.2497 200.688 23.7725C208.31 21.2 216.504 19.9137 225.27 19.9137C233.94 19.9137 241.943 21.1524 249.28 23.6296C256.616 26.1068 262.905 29.6321 268.145 34.2054C273.48 38.7787 277.625 44.3049 280.579 50.7838C283.532 57.2626 285.009 64.4561 285.009 72.3642C285.009 78.8431 284.151 84.655 282.436 89.8C280.817 94.8497 278.435 99.2801 275.291 103.091C272.242 106.902 268.526 110.142 264.143 112.81C259.76 115.477 254.854 117.669 249.423 119.384C262.762 122.814 272.766 128.721 279.435 137.105C286.2 145.395 289.582 155.78 289.582 168.261C289.582 177.694 287.772 186.173 284.151 193.7C280.626 201.227 275.767 207.659 269.574 212.994C263.381 218.234 256.14 222.284 247.851 225.142C239.657 227.905 230.844 229.287 221.411 229.287C210.549 229.287 201.26 227.953 193.542 225.285C185.825 222.522 179.298 218.758 173.963 213.995C168.627 209.231 164.244 203.609 160.814 197.13C157.384 190.556 154.478 183.458 152.096 175.836L163.101 171.263C165.959 170.024 168.722 169.69 171.39 170.262C174.153 170.834 176.154 172.406 177.393 174.978C178.631 177.646 180.156 180.838 181.966 184.554C183.872 188.27 186.444 191.843 189.684 195.272C192.923 198.703 197.02 201.608 201.974 203.99C207.024 206.372 213.408 207.563 221.125 207.563C228.271 207.563 234.512 206.42 239.847 204.133C245.278 201.751 249.756 198.703 253.281 194.987C256.902 191.271 259.617 187.126 261.428 182.553C263.238 177.98 264.143 173.454 264.143 168.976C264.143 163.45 263.429 158.4 261.999 153.827C260.57 149.253 257.902 145.299 253.996 141.965C250.09 138.63 244.706 136.01 237.846 134.104C231.082 132.199 222.364 131.246 211.693 131.246V112.81C220.458 112.714 227.89 111.762 233.988 109.951C240.181 108.141 245.183 105.664 248.994 102.52C252.9 99.3754 255.711 95.6119 257.426 91.2292C259.236 86.8464 260.141 81.9872 260.141 76.6517C260.141 70.7444 259.189 65.5994 257.283 61.2167C255.473 56.8339 252.948 53.2133 249.709 50.355C246.469 47.4967 242.61 45.3529 238.132 43.9238C233.75 42.4946 228.986 41.78 223.841 41.78C218.696 41.78 213.884 42.5422 209.406 44.0667C205.023 45.5911 201.117 47.7349 197.687 50.4979C194.352 53.1657 191.541 56.3575 189.255 60.0733C186.968 63.7892 185.348 67.8861 184.396 72.3642C183.157 75.6989 181.585 77.9379 179.679 79.0812C177.869 80.1293 175.201 80.4151 171.676 79.9388L158.385 77.6521Z" fill="#FFF5E8"/>
</g>
<defs>
<filter id="filter0_f_103_64" x="-125.097" y="641.903" width="497.779" height="497.779" filterUnits="userSpaceOnUse" color-interpolation-filters="sRGB">
<feFlood flood-opacity="0" result="BackgroundImageFix"/>
<feBlend mode="normal" in="SourceGraphic" in2="BackgroundImageFix" result="shape"/>
<feGaussianBlur stdDeviation="15.5" result="effect1_foregroundBlur_103_64"/>
</filter>
<filter id="filter1_f_103_64" x="1665.06" y="105.062" width="374.438" height="374.437" filterUnits="userSpaceOnUse" color-interpolation-filters="sRGB">
<feFlood flood-opacity="0" result="BackgroundImageFix"/>
<feBlend mode="normal" in="SourceGraphic" in2="BackgroundImageFix" result="shape"/>
<feGaussianBlur stdDeviation="15.5" result="effect1_foregroundBlur_103_64"/>
</filter>
<filter id="filter2_f_103_64" x="1148.01" y="641.006" width="240.031" height="240.031" filterUnits="userSpaceOnUse" color-interpolation-filters="sRGB">
<feFlood flood-opacity="0" result="BackgroundImageFix"/>
<feBlend mode="normal" in="SourceGraphic" in2="BackgroundImageFix" result="shape"/>
<feGaussianBlur stdDeviation="15.5" result="effect1_foregroundBlur_103_64"/>
</filter>
<linearGradient id="paint0_linear_103_64" x1="960" y1="0" x2="960" y2="967" gradientUnits="userSpaceOnUse">
<stop stop-color="white" stop-opacity="0"/>
<stop offset="1" stop-color="#FFEEDA"/>
</linearGradient>
<linearGradient id="paint1_linear_103_64" x1="-10.3208" y1="788.025" x2="428.525" y2="901.109" gradientUnits="userSpaceOnUse">
<stop stop-color="#FFF0DE"/>
<stop offset="1" stop-color="#F2921D"/>
</linearGradient>
<linearGradient id="paint2_linear_103_64" x1="1756.13" y1="218.6" x2="2070.76" y2="299.677" gradientUnits="userSpaceOnUse">
<stop stop-color="#FFF0DE"/>
<stop offset="1" stop-color="#F2921D"/>
</linearGradient>
<linearGradient id="paint3_linear_103_64" x1="1213.22" y1="719.027" x2="1392.55" y2="765.237" gradientUnits="userSpaceOnUse">
<stop stop-color="#FFF0DE"/>
<stop offset="1" stop-color="#F2921D"/>
</linearGradient>
<clipPath id="clip0_103_64">
<rect width="1920" height="967" fill="white"/>
</clipPath>
</defs>
</svg>
