<svg width="360" height="640" viewBox="0 0 360 640" fill="none" xmlns="http://www.w3.org/2000/svg">
<g clip-path="url(#clip0)">
<rect width="360" height="640" fill="white"/>
<g clip-path="url(#clip1)">
<rect width="1194" height="640" fill="white"/>
<rect width="1194" height="640" fill="url(#paint0_linear)"/>
<g filter="url(#filter0_f)">
<circle cx="196.912" cy="553.962" r="135.467" transform="rotate(105 196.912 553.962)" fill="url(#paint1_linear)"/>
</g>
<g filter="url(#filter1_f)">
<circle cx="385.953" cy="200.953" r="97.1244" transform="rotate(105 385.953 200.953)" fill="url(#paint2_linear)"/>
</g>
<g filter="url(#filter2_f)">
<circle cx="17.3563" cy="280.357" r="55.3566" transform="rotate(90 17.3563 280.357)" fill="url(#paint3_linear)"/>
</g>
<path d="M66.4548 50.0899C66.4548 58.5732 65.5298 65.9284 63.6797 72.1556C61.8747 78.3376 59.3929 83.4591 56.2342 87.5203C53.0755 91.5815 49.3302 94.6048 44.9983 96.5903C40.7115 98.5757 36.1088 99.5685 31.1903 99.5685C26.2266 99.5685 21.6014 98.5757 17.3146 96.5903C13.073 94.6048 9.37279 91.5815 6.2141 87.5203C3.05541 83.4591 0.573583 78.3376 -1.23138 72.1556C-3.03635 65.9284 -3.93883 58.5732 -3.93883 50.0899C-3.93883 41.6065 -3.03635 34.2513 -1.23138 28.0242C0.573583 21.797 3.05541 16.6529 6.2141 12.5917C9.37279 8.48541 13.073 5.43954 17.3146 3.45407C21.6014 1.46861 26.2266 0.475879 31.1903 0.475879C36.1088 0.475879 40.7115 1.46861 44.9983 3.45407C49.3302 5.43954 53.0755 8.48541 56.2342 12.5917C59.3929 16.6529 61.8747 21.797 63.6797 28.0242C65.5298 34.2513 66.4548 41.6065 66.4548 50.0899ZM53.9329 50.0899C53.9329 42.6895 53.3011 36.4849 52.0376 31.4762C50.8193 26.4223 49.1497 22.3611 47.0289 19.2926C44.9532 16.2242 42.539 14.0357 39.7864 12.7271C37.0339 11.3734 34.1685 10.6965 31.1903 10.6965C28.2121 10.6965 25.3467 11.3734 22.5942 12.7271C19.8416 14.0357 17.4274 16.2242 15.3517 19.2926C13.276 22.3611 11.6064 26.4223 10.343 31.4762C9.1246 36.4849 8.51543 42.6895 8.51543 50.0899C8.51543 57.4902 9.1246 63.6948 10.343 68.7036C11.6064 73.7123 13.276 77.7509 15.3517 80.8194C17.4274 83.8878 19.8416 86.0989 22.5942 87.4526C25.3467 88.7612 28.2121 89.4155 31.1903 89.4155C34.1685 89.4155 37.0339 88.7612 39.7864 87.4526C42.539 86.0989 44.9532 83.8878 47.0289 80.8194C49.1497 77.7509 50.8193 73.7123 52.0376 68.7036C53.3011 63.6948 53.9329 57.4902 53.9329 50.0899ZM139.431 89.3478V98.5532H87.4481V89.3478H108.228V23.2184C108.228 21.233 108.295 19.225 108.431 17.1944L91.1708 32.0176C90.5842 32.514 89.9976 32.8299 89.411 32.9653C88.8244 33.0555 88.2829 33.0555 87.7865 32.9653C87.2902 32.875 86.8164 32.6945 86.3651 32.4238C85.959 32.153 85.6431 31.8597 85.4175 31.5438L81.6271 26.332L110.529 1.3558H120.344V89.3478H139.431Z" fill="#FFF5E8"/>
</g>
</g>
<defs>
<filter id="filter0_f" x="11.7219" y="368.772" width="370.38" height="370.38" filterUnits="userSpaceOnUse" color-interpolation-filters="sRGB">
<feFlood flood-opacity="0" result="BackgroundImageFix"/>
<feBlend mode="normal" in="SourceGraphic" in2="BackgroundImageFix" result="shape"/>
<feGaussianBlur stdDeviation="9.63906" result="effect1_foregroundBlur"/>
</filter>
<filter id="filter1_f" x="247.722" y="62.7219" width="276.461" height="276.461" filterUnits="userSpaceOnUse" color-interpolation-filters="sRGB">
<feFlood flood-opacity="0" result="BackgroundImageFix"/>
<feBlend mode="normal" in="SourceGraphic" in2="BackgroundImageFix" result="shape"/>
<feGaussianBlur stdDeviation="9.63906" result="effect1_foregroundBlur"/>
</filter>
<filter id="filter2_f" x="-57.2781" y="205.722" width="149.269" height="149.269" filterUnits="userSpaceOnUse" color-interpolation-filters="sRGB">
<feFlood flood-opacity="0" result="BackgroundImageFix"/>
<feBlend mode="normal" in="SourceGraphic" in2="BackgroundImageFix" result="shape"/>
<feGaussianBlur stdDeviation="9.63906" result="effect1_foregroundBlur"/>
</filter>
<linearGradient id="paint0_linear" x1="597" y1="0" x2="597" y2="640" gradientUnits="userSpaceOnUse">
<stop stop-color="white" stop-opacity="0"/>
<stop offset="1" stop-color="#FFEEDA"/>
</linearGradient>
<linearGradient id="paint1_linear" x1="113.51" y1="490.053" x2="386.417" y2="560.377" gradientUnits="userSpaceOnUse">
<stop stop-color="#FFF0DE"/>
<stop offset="1" stop-color="#F2921D"/>
</linearGradient>
<linearGradient id="paint2_linear" x1="326.157" y1="155.133" x2="521.821" y2="205.552" gradientUnits="userSpaceOnUse">
<stop stop-color="#FFF0DE"/>
<stop offset="1" stop-color="#F2921D"/>
</linearGradient>
<linearGradient id="paint3_linear" x1="-16.7248" y1="254.241" x2="94.795" y2="282.978" gradientUnits="userSpaceOnUse">
<stop stop-color="#FFF0DE"/>
<stop offset="1" stop-color="#F2921D"/>
</linearGradient>
<clipPath id="clip0">
<rect width="360" height="640" fill="white"/>
</clipPath>
<clipPath id="clip1">
<rect width="1194" height="640" fill="white"/>
</clipPath>
</defs>
</svg>
