<svg width="1920" height="967" viewBox="0 0 1920 967" fill="none" xmlns="http://www.w3.org/2000/svg">
<g clip-path="url(#clip0_105_69)">
<rect width="1920" height="967" fill="white"/>
<rect width="1920" height="967" fill="url(#paint0_linear_105_69)"/>
<g filter="url(#filter0_f_105_69)">
<circle cx="-53.5" cy="1008.5" r="274.5" fill="url(#paint1_linear_105_69)"/>
</g>
<g filter="url(#filter1_f_105_69)">
<circle cx="1085.5" cy="279.5" r="213.5" fill="url(#paint2_linear_105_69)"/>
</g>
<g filter="url(#filter2_f_105_69)">
<circle cx="1743" cy="914" r="142" fill="url(#paint3_linear_105_69)"/>
</g>
<path d="M131.208 146.672C131.208 164.584 129.255 180.114 125.349 193.263C121.538 206.316 116.297 217.13 109.628 225.705C102.958 234.28 95.0504 240.663 85.9037 244.855C76.8524 249.048 67.134 251.144 56.7488 251.144C46.2682 251.144 36.5022 249.048 27.4508 244.855C18.4947 240.663 10.6819 234.28 4.0125 225.705C-2.65695 217.13 -7.89722 206.316 -11.7083 193.263C-15.5194 180.114 -17.425 164.584 -17.425 146.672C-17.425 128.759 -15.5194 113.229 -11.7083 100.081C-7.89722 86.9325 -2.65695 76.0708 4.0125 67.4958C10.6819 58.8256 18.4947 52.3943 27.4508 48.2021C36.5022 44.0099 46.2682 41.9137 56.7488 41.9137C67.134 41.9137 76.8524 44.0099 85.9037 48.2021C95.0504 52.3943 102.958 58.8256 109.628 67.4958C116.297 76.0708 121.538 86.9325 125.349 100.081C129.255 113.229 131.208 128.759 131.208 146.672ZM104.769 146.672C104.769 131.046 103.435 117.945 100.767 107.37C98.1946 96.6985 94.6693 88.1235 90.1912 81.6446C85.8085 75.1657 80.7111 70.5447 74.8992 67.7817C69.0872 64.9233 63.0371 63.4942 56.7488 63.4942C50.4604 63.4942 44.4103 64.9233 38.5983 67.7817C32.7864 70.5447 27.689 75.1657 23.3063 81.6446C18.9235 88.1235 15.3982 96.6985 12.7304 107.37C10.1579 117.945 8.87167 131.046 8.87167 146.672C8.87167 162.297 10.1579 175.398 12.7304 185.974C15.3982 196.55 18.9235 205.077 23.3063 211.556C27.689 218.035 32.7864 222.703 38.5983 225.562C44.4103 228.325 50.4604 229.706 56.7488 229.706C63.0371 229.706 69.0872 228.325 74.8992 225.562C80.7111 222.703 85.8085 218.035 90.1912 211.556C94.6693 205.077 98.1946 196.55 100.767 185.974C103.435 175.398 104.769 162.297 104.769 146.672ZM158.385 99.6521C159.719 90.3149 162.291 82.0733 166.102 74.9275C169.913 67.6864 174.725 61.6363 180.537 56.7771C186.444 51.9179 193.161 48.2497 200.688 45.7725C208.31 43.2 216.504 41.9137 225.27 41.9137C233.94 41.9137 241.943 43.1524 249.28 45.6296C256.616 48.1068 262.905 51.6321 268.145 56.2054C273.48 60.7787 277.625 66.3049 280.579 72.7838C283.532 79.2626 285.009 86.4561 285.009 94.3642C285.009 100.843 284.151 106.655 282.436 111.8C280.817 116.85 278.435 121.28 275.291 125.091C272.242 128.902 268.526 132.142 264.143 134.81C259.76 137.477 254.854 139.669 249.423 141.384C262.762 144.814 272.766 150.721 279.435 159.105C286.2 167.395 289.582 177.78 289.582 190.261C289.582 199.694 287.772 208.173 284.151 215.7C280.626 223.227 275.767 229.659 269.574 234.994C263.381 240.234 256.14 244.284 247.851 247.142C239.657 249.905 230.844 251.287 221.411 251.287C210.549 251.287 201.26 249.953 193.542 247.285C185.825 244.522 179.298 240.758 173.963 235.995C168.627 231.231 164.244 225.609 160.814 219.13C157.384 212.556 154.478 205.458 152.096 197.836L163.101 193.263C165.959 192.024 168.722 191.69 171.39 192.262C174.153 192.834 176.154 194.406 177.393 196.978C178.631 199.646 180.156 202.838 181.966 206.554C183.872 210.27 186.444 213.843 189.684 217.272C192.923 220.703 197.02 223.608 201.974 225.99C207.024 228.372 213.408 229.563 221.125 229.563C228.271 229.563 234.512 228.42 239.847 226.133C245.278 223.751 249.756 220.703 253.281 216.987C256.902 213.271 259.617 209.126 261.428 204.553C263.238 199.98 264.143 195.454 264.143 190.976C264.143 185.45 263.429 180.4 261.999 175.827C260.57 171.253 257.902 167.299 253.996 163.965C250.09 160.63 244.706 158.01 237.846 156.104C231.082 154.199 222.364 153.246 211.693 153.246V134.81C220.458 134.714 227.89 133.762 233.988 131.951C240.181 130.141 245.183 127.664 248.994 124.52C252.9 121.375 255.711 117.612 257.426 113.229C259.236 108.846 260.141 103.987 260.141 98.6517C260.141 92.7444 259.189 87.5994 257.283 83.2167C255.473 78.8339 252.948 75.2133 249.709 72.355C246.469 69.4967 242.61 67.3529 238.132 65.9238C233.75 64.4946 228.986 63.78 223.841 63.78C218.696 63.78 213.884 64.5422 209.406 66.0667C205.023 67.5911 201.117 69.7349 197.687 72.4979C194.352 75.1657 191.541 78.3575 189.255 82.0733C186.968 85.7892 185.348 89.8861 184.396 94.3642C183.157 97.6989 181.585 99.9379 179.679 101.081C177.869 102.129 175.201 102.415 171.676 101.939L158.385 99.6521Z" fill="#FFEEF1"/>
</g>
<defs>
<filter id="filter0_f_105_69" x="-359" y="703" width="611" height="611" filterUnits="userSpaceOnUse" color-interpolation-filters="sRGB">
<feFlood flood-opacity="0" result="BackgroundImageFix"/>
<feBlend mode="normal" in="SourceGraphic" in2="BackgroundImageFix" result="shape"/>
<feGaussianBlur stdDeviation="15.5" result="effect1_foregroundBlur_105_69"/>
</filter>
<filter id="filter1_f_105_69" x="847.889" y="41.8889" width="475.222" height="475.222" filterUnits="userSpaceOnUse" color-interpolation-filters="sRGB">
<feFlood flood-opacity="0" result="BackgroundImageFix"/>
<feBlend mode="normal" in="SourceGraphic" in2="BackgroundImageFix" result="shape"/>
<feGaussianBlur stdDeviation="12.0556" result="effect1_foregroundBlur_105_69"/>
</filter>
<filter id="filter2_f_105_69" x="1584.96" y="755.964" width="316.073" height="316.073" filterUnits="userSpaceOnUse" color-interpolation-filters="sRGB">
<feFlood flood-opacity="0" result="BackgroundImageFix"/>
<feBlend mode="normal" in="SourceGraphic" in2="BackgroundImageFix" result="shape"/>
<feGaussianBlur stdDeviation="8.01822" result="effect1_foregroundBlur_105_69"/>
</filter>
<linearGradient id="paint0_linear_105_69" x1="960" y1="0" x2="960" y2="967" gradientUnits="userSpaceOnUse">
<stop stop-color="white" stop-opacity="0"/>
<stop offset="1" stop-color="#FFE9EE"/>
</linearGradient>
<linearGradient id="paint1_linear_105_69" x1="-222.5" y1="879" x2="330.5" y2="1021.5" gradientUnits="userSpaceOnUse">
<stop stop-color="#E8D9FF"/>
<stop offset="1" stop-color="#FFE9EE"/>
</linearGradient>
<linearGradient id="paint2_linear_105_69" x1="954.056" y1="178.778" x2="1384.17" y2="289.611" gradientUnits="userSpaceOnUse">
<stop stop-color="#E8D9FF"/>
<stop offset="1" stop-color="#FFE9EE"/>
</linearGradient>
<linearGradient id="paint3_linear_105_69" x1="1655.58" y1="847.009" x2="1941.64" y2="920.725" gradientUnits="userSpaceOnUse">
<stop stop-color="#E8D9FF"/>
<stop offset="1" stop-color="#FFE9EE"/>
</linearGradient>
<clipPath id="clip0_105_69">
<rect width="1920" height="967" fill="white"/>
</clipPath>
</defs>
</svg>
