<svg width="846" height="427" viewBox="0 0 846 427" fill="none" xmlns="http://www.w3.org/2000/svg">
<g clip-path="url(#clip0_502_6468)">
<rect width="846" height="426.084" fill="url(#paint0_linear_502_6468)"/>
<g filter="url(#filter0_f_502_6468)">
<circle cx="344.128" cy="86.8032" r="70.9406" fill="url(#paint1_linear_502_6468)"/>
</g>
<g filter="url(#filter1_f_502_6468)">
<circle cx="835.193" cy="170.681" r="37.9096" transform="rotate(-165 835.193 170.681)" fill="url(#paint2_linear_502_6468)"/>
</g>
<g filter="url(#filter2_f_502_6468)">
<circle cx="39.7245" cy="408.528" r="56.1797" transform="rotate(165 39.7245 408.528)" fill="url(#paint3_linear_502_6468)"/>
</g>
<path d="M57.8129 64.4897C57.8129 72.3823 56.9523 79.2253 55.231 85.0188C53.5517 90.7703 51.2427 95.5352 48.304 99.3136C45.3653 103.092 41.8808 105.905 37.8506 107.752C33.8623 109.599 29.5802 110.523 25.0041 110.523C20.3861 110.523 16.083 109.599 12.0947 107.752C8.14846 105.905 4.70595 103.092 1.76723 99.3136C-1.1715 95.5352 -3.48049 90.7703 -5.15977 85.0188C-6.83904 79.2253 -7.67867 72.3823 -7.67867 64.4897C-7.67867 56.5971 -6.83904 49.7541 -5.15977 43.9606C-3.48049 38.1671 -1.1715 33.3812 1.76723 29.6028C4.70595 25.7825 8.14846 22.9487 12.0947 21.1015C16.083 19.2543 20.3861 18.3307 25.0041 18.3307C29.5802 18.3307 33.8623 19.2543 37.8506 21.1015C41.8808 22.9487 45.3653 25.7825 48.304 29.6028C51.2427 33.3812 53.5517 38.1671 55.231 43.9606C56.9523 49.7541 57.8129 56.5971 57.8129 64.4897ZM46.163 64.4897C46.163 57.6047 45.5752 51.8322 44.3997 47.1722C43.2662 42.4703 41.7129 38.6919 39.7397 35.8371C37.8086 32.9824 35.5626 30.9463 33.0017 29.7288C30.4408 28.4693 27.7749 27.8396 25.0041 27.8396C22.2333 27.8396 19.5675 28.4693 17.0066 29.7288C14.4457 30.9463 12.1997 32.9824 10.2685 35.8371C8.33738 38.6919 6.78405 42.4703 5.60856 47.1722C4.47505 51.8322 3.9083 57.6047 3.9083 64.4897C3.9083 71.3747 4.47505 77.1472 5.60856 81.8072C6.78405 86.4672 8.33738 90.2245 10.2685 93.0793C12.1997 95.934 14.4457 97.9912 17.0066 99.2506C19.5675 100.468 22.2333 101.077 25.0041 101.077C27.7749 101.077 30.4408 100.468 33.0017 99.2506C35.5626 97.9912 37.8086 95.934 39.7397 93.0793C41.7129 90.2245 43.2662 86.4672 44.3997 81.8072C45.5752 77.1472 46.163 71.3747 46.163 64.4897ZM125.707 101.014V109.578H77.3443V101.014H96.6769V39.4896C96.6769 37.6424 96.7398 35.7742 96.8658 33.885L80.8078 47.676C80.262 48.1378 79.7162 48.4317 79.1705 48.5576C78.6247 48.6416 78.1209 48.6416 77.6591 48.5576C77.1973 48.4737 76.7565 48.3057 76.3367 48.0538C75.9589 47.8019 75.665 47.5291 75.4551 47.2352L71.9286 42.3863L98.8179 19.1494H107.949V101.014H125.707Z" fill="#E9E1FF"/>
</g>
<defs>
<filter id="filter0_f_502_6468" x="265.256" y="7.9313" width="157.743" height="157.744" filterUnits="userSpaceOnUse" color-interpolation-filters="sRGB">
<feFlood flood-opacity="0" result="BackgroundImageFix"/>
<feBlend mode="normal" in="SourceGraphic" in2="BackgroundImageFix" result="shape"/>
<feGaussianBlur stdDeviation="3.96563" result="effect1_foregroundBlur_502_6468"/>
</filter>
<filter id="filter1_f_502_6468" x="789.342" y="124.831" width="91.7014" height="91.7006" filterUnits="userSpaceOnUse" color-interpolation-filters="sRGB">
<feFlood flood-opacity="0" result="BackgroundImageFix"/>
<feBlend mode="normal" in="SourceGraphic" in2="BackgroundImageFix" result="shape"/>
<feGaussianBlur stdDeviation="3.96563" result="effect1_foregroundBlur_502_6468"/>
</filter>
<filter id="filter2_f_502_6468" x="-24.4" y="344.403" width="128.249" height="128.25" filterUnits="userSpaceOnUse" color-interpolation-filters="sRGB">
<feFlood flood-opacity="0" result="BackgroundImageFix"/>
<feBlend mode="normal" in="SourceGraphic" in2="BackgroundImageFix" result="shape"/>
<feGaussianBlur stdDeviation="3.96563" result="effect1_foregroundBlur_502_6468"/>
</filter>
<linearGradient id="paint0_linear_502_6468" x1="423" y1="0" x2="423" y2="426.084" gradientUnits="userSpaceOnUse">
<stop stop-color="white"/>
<stop offset="1" stop-color="#EEE8FF"/>
</linearGradient>
<linearGradient id="paint1_linear_502_6468" x1="344.294" y1="135.814" x2="395.963" y2="28.9874" gradientUnits="userSpaceOnUse">
<stop stop-color="#EAE2FF"/>
<stop offset="0.9999" stop-color="white"/>
<stop offset="1" stop-color="white"/>
</linearGradient>
<linearGradient id="paint2_linear_502_6468" x1="835.282" y1="196.872" x2="862.893" y2="139.786" gradientUnits="userSpaceOnUse">
<stop stop-color="#EAE2FF"/>
<stop offset="0.9999" stop-color="white"/>
<stop offset="1" stop-color="white"/>
</linearGradient>
<linearGradient id="paint3_linear_502_6468" x1="39.8561" y1="447.34" x2="80.7738" y2="362.742" gradientUnits="userSpaceOnUse">
<stop stop-color="#EAE2FF"/>
<stop offset="0.9999" stop-color="white"/>
<stop offset="1" stop-color="white"/>
</linearGradient>
<clipPath id="clip0_502_6468">
<rect width="846" height="426.084" fill="white"/>
</clipPath>
</defs>
</svg>
