<svg width="1920" height="967" viewBox="0 0 1920 967" fill="none" xmlns="http://www.w3.org/2000/svg">
<g clip-path="url(#clip0_501_4250)">
<rect width="1920" height="967" fill="url(#paint0_linear_501_4250)"/>
<g filter="url(#filter0_f_501_4250)">
<circle cx="781" cy="197" r="161" fill="url(#paint1_linear_501_4250)"/>
</g>
<g filter="url(#filter1_f_501_4250)">
<circle cx="1895.47" cy="387.362" r="86.036" transform="rotate(-165 1895.47 387.362)" fill="url(#paint2_linear_501_4250)"/>
</g>
<g filter="url(#filter2_f_501_4250)">
<circle cx="90.1556" cy="927.155" r="127.5" transform="rotate(165 90.1556 927.155)" fill="url(#paint3_linear_501_4250)"/>
</g>
<path d="M131.208 146.672C131.208 164.584 129.255 180.114 125.349 193.263C121.538 206.316 116.297 217.13 109.628 225.705C102.958 234.28 95.0504 240.663 85.9037 244.855C76.8524 249.048 67.134 251.144 56.7488 251.144C46.2682 251.144 36.5022 249.048 27.4508 244.855C18.4947 240.663 10.6819 234.28 4.0125 225.705C-2.65695 217.13 -7.89722 206.316 -11.7083 193.263C-15.5194 180.114 -17.425 164.584 -17.425 146.672C-17.425 128.759 -15.5194 113.229 -11.7083 100.081C-7.89722 86.9325 -2.65695 76.0708 4.0125 67.4958C10.6819 58.8256 18.4947 52.3943 27.4508 48.2021C36.5022 44.0099 46.2682 41.9137 56.7488 41.9137C67.134 41.9137 76.8524 44.0099 85.9037 48.2021C95.0504 52.3943 102.958 58.8256 109.628 67.4958C116.297 76.0708 121.538 86.9325 125.349 100.081C129.255 113.229 131.208 128.759 131.208 146.672ZM104.769 146.672C104.769 131.046 103.435 117.945 100.767 107.37C98.1946 96.6985 94.6693 88.1235 90.1912 81.6446C85.8085 75.1657 80.7111 70.5447 74.8992 67.7817C69.0872 64.9233 63.0371 63.4942 56.7488 63.4942C50.4604 63.4942 44.4103 64.9233 38.5983 67.7817C32.7864 70.5447 27.689 75.1657 23.3063 81.6446C18.9235 88.1235 15.3982 96.6985 12.7304 107.37C10.1579 117.945 8.87167 131.046 8.87167 146.672C8.87167 162.297 10.1579 175.398 12.7304 185.974C15.3982 196.55 18.9235 205.077 23.3063 211.556C27.689 218.035 32.7864 222.703 38.5983 225.562C44.4103 228.325 50.4604 229.706 56.7488 229.706C63.0371 229.706 69.0872 228.325 74.8992 225.562C80.7111 222.703 85.8085 218.035 90.1912 211.556C94.6693 205.077 98.1946 196.55 100.767 185.974C103.435 175.398 104.769 162.297 104.769 146.672ZM280.864 224.847C283.627 224.847 285.819 225.657 287.439 227.277C289.058 228.896 289.868 230.993 289.868 233.565V249H153.24V240.282C153.24 238.472 153.621 236.614 154.383 234.708C155.145 232.803 156.336 231.04 157.956 229.42L223.555 163.536C228.986 158.01 233.94 152.722 238.418 147.672C242.896 142.527 246.707 137.382 249.851 132.237C252.996 127.092 255.425 121.899 257.14 116.659C258.855 111.324 259.713 105.655 259.713 99.6521C259.713 93.6496 258.76 88.4093 256.854 83.9312C254.949 79.3579 252.329 75.5944 248.994 72.6408C245.755 69.6872 241.896 67.4958 237.418 66.0667C232.94 64.5422 228.128 63.78 222.983 63.78C217.743 63.78 212.931 64.5422 208.549 66.0667C204.166 67.5911 200.259 69.7349 196.829 72.4979C193.495 75.1657 190.684 78.3575 188.397 82.0733C186.111 85.7892 184.491 89.8861 183.538 94.3642C182.395 97.6989 180.823 99.9379 178.822 101.081C176.916 102.129 174.201 102.415 170.676 101.939L157.384 99.6521C158.718 90.3149 161.291 82.0733 165.102 74.9275C169.008 67.6864 173.867 61.6363 179.679 56.7771C185.587 51.9179 192.304 48.2497 199.831 45.7725C207.358 43.2 215.504 41.9137 224.269 41.9137C232.94 41.9137 241.038 43.2 248.565 45.7725C256.092 48.345 262.619 52.1085 268.145 57.0629C273.671 61.9221 278.006 67.8769 281.15 74.9275C284.294 81.9781 285.866 89.9814 285.866 98.9375C285.866 106.56 284.723 113.658 282.436 120.232C280.15 126.711 277.053 132.904 273.147 138.811C269.241 144.718 264.715 150.483 259.57 156.104C254.52 161.726 249.137 167.395 243.42 173.111L189.398 228.277C193.209 227.229 197.068 226.419 200.974 225.848C204.88 225.181 208.644 224.847 212.264 224.847H280.864Z" fill="#E9E1FF"/>
</g>
<defs>
<filter id="filter0_f_501_4250" x="602" y="18" width="358" height="358" filterUnits="userSpaceOnUse" color-interpolation-filters="sRGB">
<feFlood flood-opacity="0" result="BackgroundImageFix"/>
<feBlend mode="normal" in="SourceGraphic" in2="BackgroundImageFix" result="shape"/>
<feGaussianBlur stdDeviation="9" result="effect1_foregroundBlur_501_4250"/>
</filter>
<filter id="filter1_f_501_4250" x="1791.42" y="283.305" width="208.115" height="208.115" filterUnits="userSpaceOnUse" color-interpolation-filters="sRGB">
<feFlood flood-opacity="0" result="BackgroundImageFix"/>
<feBlend mode="normal" in="SourceGraphic" in2="BackgroundImageFix" result="shape"/>
<feGaussianBlur stdDeviation="9" result="effect1_foregroundBlur_501_4250"/>
</filter>
<filter id="filter2_f_501_4250" x="-55.377" y="781.623" width="291.064" height="291.063" filterUnits="userSpaceOnUse" color-interpolation-filters="sRGB">
<feFlood flood-opacity="0" result="BackgroundImageFix"/>
<feBlend mode="normal" in="SourceGraphic" in2="BackgroundImageFix" result="shape"/>
<feGaussianBlur stdDeviation="9" result="effect1_foregroundBlur_501_4250"/>
</filter>
<linearGradient id="paint0_linear_501_4250" x1="960" y1="0" x2="960" y2="967" gradientUnits="userSpaceOnUse">
<stop stop-color="white"/>
<stop offset="1" stop-color="#EEE8FF"/>
</linearGradient>
<linearGradient id="paint1_linear_501_4250" x1="781.377" y1="308.23" x2="898.639" y2="65.7869" gradientUnits="userSpaceOnUse">
<stop stop-color="#EAE2FF"/>
<stop offset="0.9999" stop-color="white"/>
<stop offset="1" stop-color="white"/>
</linearGradient>
<linearGradient id="paint2_linear_501_4250" x1="1895.68" y1="446.802" x2="1958.34" y2="317.244" gradientUnits="userSpaceOnUse">
<stop stop-color="#EAE2FF"/>
<stop offset="0.9999" stop-color="white"/>
<stop offset="1" stop-color="white"/>
</linearGradient>
<linearGradient id="paint3_linear_501_4250" x1="90.4542" y1="1015.24" x2="183.317" y2="823.244" gradientUnits="userSpaceOnUse">
<stop stop-color="#EAE2FF"/>
<stop offset="0.9999" stop-color="white"/>
<stop offset="1" stop-color="white"/>
</linearGradient>
<clipPath id="clip0_501_4250">
<rect width="1920" height="967" fill="white"/>
</clipPath>
</defs>
</svg>
