<svg width="240" height="66" viewBox="0 0 240 66" fill="none" xmlns="http://www.w3.org/2000/svg">
<rect x="3.08824" y="3.0875" width="59.8235" height="59.8235" rx="9.26471" stroke="#5C5C5C" stroke-width="6.17647"/>
<path fill-rule="evenodd" clip-rule="evenodd" d="M39.5072 13.9535C39.5072 13.0814 38.8003 12.3745 37.9283 12.3745H13.9481C13.0761 12.3745 12.3691 13.0814 12.3691 13.9535V23.8218C12.3691 24.6939 13.0761 25.4008 13.9481 25.4008H24.902C25.774 25.4008 26.4809 26.1077 26.4809 26.9797V39.5126V52.0454C26.4809 52.9175 27.1879 53.6244 28.0599 53.6244H37.9283C38.8003 53.6244 39.5072 52.9175 39.5072 52.0454V32.9995V13.9535Z" fill="#5C5C5C"/>
<path d="M41.2441 13.9535C41.2441 13.0814 41.9511 12.3745 42.8231 12.3745H52.0402C52.9122 12.3745 53.6191 13.0814 53.6191 13.9535V23.8306C53.6191 24.7026 52.9122 25.4095 52.0402 25.4095H42.8231C41.9511 25.4095 41.2441 24.7026 41.2441 23.8306V13.9535Z" fill="#5C5C5C"/>
<path d="M84 22.774H93.7643V50.508H100.43V22.774H110.194V16.9189H84V22.774Z" fill="#5C5C5C"/>
<path d="M110.145 50.508H116.779V36.2556C116.779 33.1558 118.928 31.0237 121.856 31.0237C122.775 31.0237 124.036 31.1877 124.659 31.4009V25.2014C124.067 25.0538 123.242 24.9554 122.572 24.9554C119.894 24.9554 117.698 26.5954 116.826 29.7116H116.577V25.3162H110.145V50.508Z" fill="#5C5C5C"/>
<path d="M126.335 50.508H132.969V25.3162H126.335V50.508ZM129.668 22.0688C131.645 22.0688 133.265 20.4779 133.265 18.5262C133.265 16.5909 131.645 15 129.668 15C127.705 15 126.086 16.5909 126.086 18.5262C126.086 20.4779 127.705 22.0688 129.668 22.0688Z" fill="#5C5C5C"/>
<path d="M143.163 35.944C143.179 32.6966 145.017 30.7941 147.695 30.7941C150.358 30.7941 151.962 32.631 151.947 35.7144V50.508H158.581V34.4679C158.581 28.5964 155.31 24.9882 150.327 24.9882C146.776 24.9882 144.207 26.8251 143.132 29.7608H142.852V25.3162H136.529V50.508H143.163V35.944Z" fill="#5C5C5C"/>
<path d="M162.055 50.508H168.689V42.5043L170.48 40.3558L177.006 50.508H184.777L175.448 36.2228L184.325 25.3162H176.71L169.048 34.8779H168.689V16.9189H162.055V50.508Z" fill="#5C5C5C"/>
<path d="M195.742 51C201.659 51 205.646 47.9658 206.581 43.2916L200.445 42.8651C199.775 44.7841 198.062 45.7845 195.851 45.7845C192.534 45.7845 190.431 43.472 190.431 39.7162V39.6998H206.721V37.7809C206.721 29.2196 201.8 24.9882 195.477 24.9882C188.438 24.9882 183.875 30.2528 183.875 38.0269C183.875 46.0141 188.376 51 195.742 51ZM190.431 35.3699C190.571 32.4998 192.643 30.2036 195.586 30.2036C198.467 30.2036 200.46 32.3686 200.476 35.3699H190.431Z" fill="#5C5C5C"/>
<path d="M209.296 50.508H215.93V36.2556C215.93 33.1558 218.079 31.0237 221.007 31.0237C221.926 31.0237 223.187 31.1877 223.81 31.4009V25.2014C223.218 25.0538 222.393 24.9554 221.723 24.9554C219.045 24.9554 216.849 26.5954 215.977 29.7116H215.728V25.3162H209.296V50.508Z" fill="#5C5C5C"/>
<path d="M225.486 50.508H232.12V36.2556C232.12 33.1558 234.269 31.0237 237.197 31.0237C238.116 31.0237 239.377 31.1877 240 31.4009V25.2014C239.408 25.0538 238.583 24.9554 237.913 24.9554C235.235 24.9554 233.039 26.5954 232.167 29.7116H231.918V25.3162H225.486V50.508Z" fill="#5C5C5C"/>
</svg>
